<svg width="66" height="70" viewBox="0 0 66 70" fill="none" xmlns="http://www.w3.org/2000/svg">
<path d="M58.5354 31.6536H51.733V27.4205C51.733 25.0613 49.8165 23.147 47.4546 23.147H44.1614V20.0059C44.1614 17.485 42.1098 15.4223 39.5725 15.4223H37.1565V10.2591C37.1565 9.67941 37.6289 9.20757 38.2228 9.20757H42.9871C45.43 9.20757 47.522 7.40111 47.765 5.08236C48.0484 2.33223 45.8889 0 43.1761 0H23.0389C20.3801 0 18.2746 2.22438 18.4366 4.89363C18.585 7.32022 20.677 9.20757 23.2144 9.20757H28.0057C28.5861 9.20757 29.0585 9.67941 29.0585 10.2591V15.4089H26.6426C24.1187 15.4089 22.0537 17.458 22.0537 19.9924V23.1335H18.7605C16.3985 23.1335 14.482 25.0478 14.482 27.407V57.8877H13.2538C11.3643 57.8877 9.83913 56.3644 9.83913 54.477V28.0541C9.83913 24.6164 7.0453 21.8259 3.60363 21.8259H1.40366C0.62085 21.8259 0 22.4595 0 23.2279C0 23.9963 0.634347 24.6299 1.40366 24.6299H3.60363C5.49318 24.6299 7.01831 26.1533 7.01831 28.0406V54.477C7.01831 57.9147 9.81213 60.7053 13.2538 60.7053H14.482V63.2936C14.482 66.4482 17.0464 69.0096 20.1911 69.0096H46.0104C49.1551 69.0096 51.7195 66.4482 51.7195 63.2936V60.4896H58.5219C62.6384 60.4896 65.9991 57.1463 65.9991 53.0211V39.1221C66.0126 35.0103 62.6519 31.6536 58.5354 31.6536ZM27.9923 6.39003H23.2009C22.1752 6.39003 21.2979 5.63509 21.2439 4.71838C21.1764 3.65337 21.9997 2.81754 23.0254 2.81754H43.1626C44.2018 2.81754 45.0521 3.70729 44.9442 4.79926C44.8497 5.68901 43.9859 6.39003 42.9736 6.39003H38.1958C36.0498 6.39003 34.3087 8.12909 34.3087 10.2591V15.4089H31.8523V10.2591C31.8793 8.12909 30.1382 6.39003 27.9923 6.39003ZM24.8745 20.0059C24.8745 19.0353 25.6708 18.2399 26.6426 18.2399H39.5725C40.5442 18.2399 41.3405 19.0353 41.3405 20.0059V23.147H24.8745V20.0059ZM48.9122 63.3206C48.9122 64.9114 47.6165 66.219 46.0239 66.219H20.1911C18.5985 66.219 17.3028 64.9249 17.3028 63.3206V27.4205C17.3028 26.6116 17.9642 25.9645 18.7605 25.9645H47.4546C48.2644 25.9645 48.9122 26.6116 48.9122 27.4205V63.3206ZM63.1918 53.048C63.1918 55.6094 61.0998 57.699 58.5354 57.699H51.733V34.4711H58.5354C61.0998 34.4711 63.1918 36.5607 63.1918 39.1221V53.048Z" fill="#F5731C"/>
<path d="M44.6839 45.6907H40.442C40.3033 44.0013 39.9013 42.4503 39.3191 41.1209L43.464 36.9802C44.0323 36.4125 44.0323 35.4985 43.464 34.9307C42.8956 34.3629 41.9807 34.3629 41.4123 34.9307L37.7388 38.5866C36.4912 37.1187 34.897 36.2463 33.1365 36.2463C31.376 36.2463 29.7818 37.1187 28.5342 38.5866L24.8745 34.9307C24.3062 34.3629 23.3913 34.3629 22.8229 34.9307C22.2545 35.4985 22.2545 36.4125 22.8229 36.9802L26.9677 41.1209C26.3717 42.4641 25.9835 44.0151 25.8449 45.6907H21.5891C20.7851 45.6907 20.1475 46.3416 20.1475 47.131C20.1475 47.9203 20.799 48.5712 21.5891 48.5712H25.8449C25.9003 49.2497 25.9974 49.9144 26.136 50.5376L22.8229 53.8473C22.5456 54.1243 22.3932 54.4843 22.3932 54.8721V58.3064C22.3932 59.1096 23.0447 59.7467 23.8349 59.7467C24.625 59.7467 25.2765 59.0958 25.2765 58.3064V55.4676L27.1618 53.5842C28.4926 56.2846 30.6413 58.0156 33.1226 58.0156C35.604 58.0156 37.7527 56.2846 39.0835 53.5842L40.9687 55.4676V58.3064C40.9687 59.1096 41.6203 59.7467 42.4104 59.7467C43.2006 59.7467 43.8521 59.0958 43.8521 58.3064V54.8721C43.8521 54.4843 43.6996 54.1243 43.4224 53.8473L40.1093 50.5376C40.2479 49.9006 40.3449 49.2497 40.4004 48.5712H44.6423C45.4463 48.5712 46.084 47.9203 46.084 47.131C46.084 46.3416 45.474 45.6907 44.6839 45.6907ZM33.1365 55.1352C27.2866 55.1352 27.245 39.1406 33.1365 39.1406C39.0835 39.1406 38.9448 55.1352 33.1365 55.1352Z" fill="#F5731C"/>
</svg>
