<svg width="53" height="53" viewBox="0 0 53 53" fill="none" xmlns="http://www.w3.org/2000/svg">
<path d="M35.7129 10.1653C33.1828 7.22994 30.3283 4.59071 27.2039 2.29811C27.0004 2.14686 26.7536 2.06519 26.5 2.06519C26.2464 2.06519 25.9996 2.14686 25.7961 2.29811C22.6717 4.59071 19.8172 7.22994 17.2871 10.1653C11.6559 16.6247 8.69531 23.4153 8.69531 29.8126C8.69531 34.5347 10.5712 39.0634 13.9102 42.4024C17.2492 45.7414 21.7779 47.6172 26.5 47.6172C31.2221 47.6172 35.7508 45.7414 39.0898 42.4024C42.4288 39.0634 44.3047 34.5347 44.3047 29.8126C44.3047 23.4153 41.3441 16.6247 35.7129 10.1653ZM26.5 4.8653C29.2121 6.95631 38.8805 15.0098 41.282 25.2579H11.718C14.1195 15.0098 23.7879 6.95631 26.5 4.8653ZM41.8203 29.8126C41.8243 30.5053 41.7759 31.1974 41.6754 31.8829H11.3246C11.1384 30.5094 11.1315 29.1175 11.3039 27.7422H41.6961C41.7793 28.4292 41.8208 29.1206 41.8203 29.8126ZM13.8918 38.5079C13.0156 37.2349 12.3319 35.8397 11.8629 34.3672H41.1371C40.6681 35.8397 39.9844 37.2349 39.1082 38.5079H13.8918ZM16.0449 40.9922H36.9551C34.1226 43.6502 30.3842 45.1295 26.5 45.1295C22.6158 45.1295 18.8774 43.6502 16.0449 40.9922Z" fill="#F5731C"/>
</svg>
