<svg width="59" height="71" viewBox="0 0 59 71" fill="none" xmlns="http://www.w3.org/2000/svg">
<path d="M24.9758 0.0222471V0.0396676C24.7769 0.0054675 24.5738 0.0054675 24.3749 0.0396676C23.8546 0.134225 23.686 0.330803 23.4832 0.497523C23.2794 0.66955 23.0869 0.854909 22.9067 1.05243C22.5281 1.45803 22.1299 1.94326 21.7366 2.42102C21.3457 2.90128 20.9549 3.37656 20.6495 3.71995C20.5499 3.83151 20.4464 3.93941 20.3393 4.04343C20.2245 4.04343 20.0901 4.01855 19.9044 3.99615C19.4574 3.93395 18.8662 3.82695 18.2628 3.71995C17.6619 3.61295 17.0536 3.50346 16.5089 3.44374C16.2471 3.41171 15.9835 3.39675 15.7198 3.39895C15.4609 3.39895 15.2044 3.37158 14.7476 3.64281C14.2907 3.91404 14.1979 4.15292 14.0636 4.38185C13.9316 4.61078 13.8217 4.8422 13.7118 5.10099C13.4919 5.61359 13.2721 6.2108 13.062 6.80054C12.8519 7.39028 12.6467 7.97256 12.4757 8.40553C12.4024 8.58718 12.3413 8.72155 12.29 8.82855C12.1479 8.87032 12.0045 8.90766 11.8601 8.94053C11.4204 9.04006 10.8292 9.14706 10.2283 9.25655C9.62732 9.36603 9.01416 9.4805 8.48162 9.61487C8.21779 9.68206 7.97106 9.75173 7.72922 9.84877C7.48493 9.94582 7.23576 9.99808 6.89865 10.4111C6.56153 10.8242 6.55664 11.083 6.50779 11.3443C6.45893 11.6056 6.42962 11.8619 6.41007 12.1406C6.37587 12.7029 6.37587 13.3399 6.37343 13.9695C6.37343 14.5991 6.37343 15.2187 6.35389 15.6865C6.34656 15.8855 6.32946 16.0274 6.31724 16.1468C6.22442 16.2165 6.11204 16.3036 5.95081 16.4106C5.56729 16.6594 5.04207 16.968 4.51197 17.284C3.98431 17.6 3.45177 17.9235 2.9974 18.237C2.77724 18.3847 2.56671 18.5468 2.36713 18.7223C2.1717 18.8989 1.95673 19.0358 1.78085 19.5384C1.60252 20.0411 1.67825 20.2874 1.71733 20.5512C1.75642 20.8125 1.82238 21.0638 1.89811 21.3326C2.04956 21.8725 2.25965 22.4722 2.46729 23.062C2.6725 23.6542 2.87769 24.2365 3.0145 24.6794C3.07312 24.871 3.11221 25.0128 3.13908 25.1273C3.07556 25.2268 2.99251 25.3537 2.87036 25.513C2.59432 25.8813 2.21079 26.3516 1.81749 26.8343C1.42663 27.3171 1.03333 27.8097 0.710874 28.2626C0.553287 28.4785 0.40967 28.7046 0.280932 28.9395C0.156346 29.1734 0 29.3774 0 29.9099C0 30.4424 0.156346 30.649 0.280932 30.8829C0.405518 31.1168 0.549645 31.3308 0.710874 31.5572C1.03333 32.0126 1.42663 32.5028 1.81749 32.988C2.20835 33.4708 2.59432 33.9411 2.87281 34.3069C2.99006 34.4686 3.07556 34.593 3.13908 34.6926C3.10372 34.8433 3.06298 34.9927 3.01694 35.1405C2.87769 35.5834 2.67494 36.1682 2.46729 36.7579C2.25965 37.3476 2.05201 37.9448 1.89811 38.4848C1.82158 38.7428 1.7612 39.0054 1.71733 39.2711C1.67825 39.5349 1.60252 39.7788 1.77841 40.2814C1.95674 40.7841 2.16927 40.9234 2.3647 41.0976C2.56012 41.2743 2.76776 41.4285 2.99495 41.5853C3.45177 41.8988 3.98431 42.2223 4.51197 42.5384C5.04207 42.8544 5.56729 43.1604 5.94837 43.4093C6.11204 43.5113 6.22441 43.5984 6.3148 43.6706C6.32946 43.79 6.34656 43.9368 6.35389 44.1359C6.37343 44.6037 6.37343 45.2233 6.37343 45.8528C6.37343 46.4799 6.37343 47.112 6.41251 47.6743C6.42961 47.9555 6.45649 48.2143 6.50779 48.4756C6.55664 48.7369 6.56153 48.9981 6.89865 49.4087C7.23576 49.8218 7.48493 49.8765 7.72922 49.9736C7.97351 50.0706 8.21779 50.1453 8.48162 50.2125C9.01416 50.3468 9.62977 50.4613 10.2283 50.5708C10.8292 50.6803 11.4179 50.7873 11.8601 50.8868C12.0458 50.9291 12.1801 50.9664 12.29 50.9988C12.3413 51.1058 12.4024 51.2401 12.4757 51.4218C12.5881 51.698 12.7224 52.0887 12.8543 52.452L6.40274 63.6446C6.27034 63.8734 6.20788 64.1373 6.22336 64.4024C6.23883 64.6676 6.33153 64.922 6.48961 65.1332C6.6477 65.3445 6.86401 65.5029 7.11091 65.5884C7.35781 65.6738 7.6241 65.6823 7.87579 65.6129L13.7777 64.0005L15.3632 70.0173C15.4315 70.2711 15.572 70.4988 15.7669 70.6716C15.9618 70.8444 16.2024 70.9548 16.4587 70.9888C16.7149 71.0228 16.9753 70.979 17.2072 70.8628C17.4391 70.7467 17.6321 70.5633 17.7621 70.3358L23.8497 59.601C23.9791 59.6757 24.133 59.7429 24.3749 59.7852C24.8977 59.8797 25.1224 59.7553 25.3691 59.6682C25.6134 59.5811 25.8479 59.4766 26.0922 59.3522C26.5857 59.1034 27.1231 58.7898 27.6556 58.4788C28.1833 58.1652 28.7036 57.8542 29.1043 57.6377C29.2728 57.5481 29.395 57.4859 29.5 57.4386C29.605 57.4859 29.7296 57.5481 29.8958 57.6377C30.2964 57.8542 30.8167 58.1652 31.3468 58.4788C31.8769 58.7898 32.4143 59.1059 32.9078 59.3522C33.1521 59.4766 33.3842 59.5811 33.6309 59.6682C33.8776 59.7553 34.1023 59.8797 34.6251 59.7852C34.8079 59.7558 34.9841 59.6934 35.1455 59.601L41.2282 70.3358C41.3582 70.5633 41.5512 70.7467 41.7831 70.8628C42.0149 70.979 42.2753 71.0228 42.5316 70.9888C42.7878 70.9548 43.0285 70.8444 43.2234 70.6716C43.4183 70.4988 43.5587 70.2711 43.6271 70.0173L45.2125 64.0054L51.1096 65.6179C51.3609 65.686 51.6265 65.6764 51.8725 65.5904C52.1185 65.5044 52.3339 65.3459 52.4912 65.1349C52.6486 64.924 52.7408 64.6701 52.7562 64.4057C52.7716 64.1412 52.7095 63.878 52.5777 63.6496L46.1408 52.4719C46.2751 52.0986 46.4095 51.703 46.5243 51.4218C46.5976 51.2401 46.6587 51.1058 46.71 50.9988C46.8199 50.9664 46.9543 50.9291 47.1399 50.8868C47.5796 50.7873 48.1708 50.6827 48.7717 50.5708C49.3727 50.4613 49.9858 50.3468 50.5184 50.2125C50.7741 50.1498 51.0254 50.07 51.2708 49.9736C51.5151 49.874 51.7642 49.8218 52.1014 49.4087C52.4385 48.9956 52.4434 48.7369 52.4922 48.4756C52.5411 48.2143 52.5704 47.953 52.5899 47.6743C52.6241 47.112 52.6241 46.4799 52.6266 45.8528C52.6266 45.2233 52.6266 44.6037 52.6461 44.1359C52.6534 43.9368 52.6706 43.7875 52.6828 43.6706C52.7756 43.6009 52.888 43.5138 53.0492 43.4068C53.4327 43.158 53.9531 42.8544 54.4832 42.5359C55.0108 42.2223 55.5458 41.8988 55.9977 41.5853C56.2274 41.4285 56.435 41.2743 56.628 41.0976C56.8234 40.9234 57.0384 40.7841 57.2143 40.2814C57.3926 39.7788 57.3169 39.5349 57.2778 39.2711C57.2339 39.0054 57.1735 38.7428 57.097 38.4848C56.9248 37.9033 56.735 37.3274 56.5278 36.7579C56.3364 36.222 56.154 35.6827 55.9806 35.1405C55.9347 34.9927 55.8939 34.8433 55.8585 34.6926C55.9196 34.593 56.0051 34.4686 56.1223 34.3093C56.4008 33.9411 56.7868 33.4708 57.1776 32.988C57.5685 32.5053 57.9667 32.0126 58.2891 31.5572C58.4504 31.3333 58.5945 31.1168 58.7191 30.8829C58.8437 30.649 59 30.4449 59 29.9124C59 29.3774 58.8437 29.1709 58.7191 28.9395C58.5903 28.7046 58.4467 28.4785 58.2891 28.2626C57.9667 27.8097 57.5685 27.3171 57.1776 26.8343C56.7868 26.3516 56.4008 25.8763 56.1223 25.508C56.0293 25.3843 55.9405 25.2573 55.856 25.1273C55.8829 25.0103 55.922 24.871 55.9782 24.6794C56.1174 24.2365 56.3202 23.6542 56.5278 23.062C56.7355 22.4722 56.9431 21.8725 57.097 21.3326C57.1727 21.0638 57.2387 20.8125 57.2778 20.5512C57.3169 20.2874 57.3926 20.0411 57.2167 19.5384C57.0384 19.0383 56.8259 18.8989 56.6304 18.7223C56.431 18.5466 56.2205 18.3845 56.0002 18.237C55.5043 17.9034 54.9984 17.5855 54.4832 17.284C53.9531 16.968 53.4327 16.6594 53.0516 16.4106C52.9263 16.3273 52.8041 16.2394 52.6852 16.1468C52.6705 16.0274 52.6534 15.883 52.6461 15.6865C52.6266 15.2187 52.6266 14.5991 52.6266 13.9695C52.6266 13.3399 52.6266 12.7029 52.5875 12.143C52.5725 11.8758 52.5406 11.6098 52.4922 11.3468C52.4434 11.0855 52.4385 10.8242 52.1014 10.4111C51.7642 9.99808 51.5151 9.94582 51.2708 9.84877C51.0265 9.74924 50.7822 9.68206 50.5184 9.61487C49.9399 9.47714 49.3574 9.35764 48.7717 9.25655C48.1708 9.14706 47.5821 9.03757 47.1399 8.94053C46.9955 8.90766 46.8521 8.87032 46.71 8.82855C46.6433 8.68977 46.5814 8.54868 46.5243 8.40553C46.3533 7.97256 46.1481 7.39028 45.938 6.80054C45.7386 6.22735 45.5219 5.66056 45.2882 5.10099C45.1855 4.85294 45.0672 4.6119 44.934 4.37936C44.8021 4.15541 44.7068 3.91155 44.2524 3.64281C43.7956 3.36909 43.5391 3.40393 43.2802 3.39895C43.0188 3.39895 42.7647 3.42383 42.4911 3.44374C41.9464 3.50346 41.3381 3.61295 40.7372 3.71746C40.1338 3.82695 39.5426 3.93643 39.0956 3.99615C38.9099 4.02104 38.7755 4.03597 38.6607 4.04592C38.5536 3.94095 38.4502 3.83223 38.3505 3.71995C37.9809 3.29329 37.6185 2.86025 37.2634 2.42102C36.8701 1.94326 36.467 1.45056 36.0908 1.04745C35.9117 0.851359 35.7199 0.667644 35.5168 0.497523C35.314 0.330803 35.1479 0.129243 34.6251 0.0346853C34.1023 -0.0598723 33.8776 0.0595718 33.6309 0.146664C33.3866 0.233757 33.1521 0.345733 32.9078 0.470151C32.4143 0.718987 31.8769 1.03003 31.3444 1.34108C30.8167 1.6571 30.2964 1.96814 29.8958 2.18463C29.7296 2.27421 29.605 2.32647 29.5 2.37374C29.395 2.32398 29.2728 2.27421 29.1043 2.18463C28.7036 1.96814 28.1833 1.6571 27.6532 1.34357C27.1419 1.03514 26.6213 0.743036 26.0922 0.467665C25.8582 0.34503 25.6166 0.237808 25.3691 0.146664C25.247 0.104362 25.1297 0.0521074 24.9783 0.0222471H24.9758ZM24.8244 2.64498C24.8903 2.67484 24.9294 2.68479 25.01 2.7246C25.3936 2.9187 25.9041 3.21232 26.4269 3.52088C26.9497 3.82943 27.4822 4.14795 27.9586 4.40425C28.198 4.53364 28.4227 4.65308 28.645 4.74515C28.8722 4.83971 29.053 4.9492 29.5 4.9492C29.947 4.9492 30.1229 4.83971 30.3501 4.74515C30.5833 4.64262 30.8116 4.52886 31.0341 4.40425C31.5129 4.14795 32.0504 3.82943 32.5731 3.52088C33.0959 3.21232 33.6065 2.91621 33.99 2.7246C34.0706 2.6823 34.1097 2.67484 34.1756 2.64498C34.2294 2.69723 34.2611 2.71963 34.3222 2.78681C34.6202 3.10284 35.0062 3.56816 35.3922 4.04095C35.783 4.51373 36.1739 5.00145 36.5379 5.40955C36.7187 5.61608 36.8872 5.79773 37.068 5.96445C37.2463 6.13366 37.3782 6.29789 37.796 6.45714C38.2161 6.61391 38.4213 6.5741 38.6656 6.56414C38.9099 6.56414 39.1566 6.52682 39.4229 6.48949C39.9603 6.41484 40.5686 6.30286 41.1598 6.19835C41.7534 6.09135 42.3348 5.99182 42.7599 5.94454C42.8502 5.94454 42.8869 5.94703 42.9602 5.91966L43.0506 6.11624C43.2216 6.51935 43.4341 7.08919 43.6417 7.67146C43.8494 8.25374 44.057 8.85095 44.2622 9.36355C44.3648 9.61736 44.465 9.85127 44.5773 10.0727C44.6897 10.2942 44.7581 10.4933 45.0977 10.7869C45.4372 11.0805 45.6424 11.1129 45.8745 11.19C46.1066 11.2647 46.346 11.3293 46.6074 11.3891C47.1375 11.5085 47.7433 11.613 48.3369 11.725C48.9305 11.8345 49.5095 11.9415 49.9248 12.046C50.0176 12.0709 50.0542 12.0883 50.1251 12.1082C50.1349 12.1853 50.1422 12.2276 50.1495 12.3272C50.1788 12.7676 50.1813 13.3723 50.1837 13.9944C50.1837 14.614 50.1837 15.2485 50.2081 15.8009C50.2179 16.0796 50.2326 16.3334 50.2643 16.5798C50.2961 16.8261 50.2961 17.0376 50.5184 17.4308C50.7382 17.8215 50.9166 17.9285 51.1096 18.0803C51.3001 18.2345 51.5053 18.3789 51.7349 18.5282C52.1893 18.8268 52.7267 19.1403 53.2471 19.4514C53.7674 19.7624 54.2731 20.0734 54.6297 20.3173C54.7103 20.372 54.7396 20.4019 54.8007 20.4492C54.7836 20.5238 54.7763 20.5686 54.7494 20.6657C54.6297 21.0887 54.4319 21.6635 54.2291 22.2458C54.0239 22.8281 53.8138 23.4203 53.6526 23.9478C53.5727 24.1958 53.5042 24.4474 53.4474 24.7018C53.3961 24.9457 53.3252 25.1422 53.3985 25.5852C53.4743 26.0281 53.6086 26.1898 53.7381 26.4013C53.8676 26.6129 54.0166 26.8244 54.1827 27.0433C54.51 27.4813 54.9058 27.964 55.2942 28.4368C55.6802 28.9146 56.0564 29.3849 56.3104 29.7407C56.369 29.8228 56.391 29.8651 56.4326 29.9298C56.391 29.997 56.369 30.0368 56.3104 30.1189C56.0564 30.4748 55.6802 30.9401 55.2942 31.4179C54.9058 31.8931 54.5125 32.3784 54.1827 32.8163C54.0166 33.0353 53.8651 33.2394 53.7381 33.4484C53.6086 33.6599 53.4743 33.8316 53.3985 34.2745C53.3252 34.7174 53.3961 34.9165 53.4474 35.1604C53.4962 35.4042 53.5695 35.6431 53.6526 35.9069C53.8163 36.4344 54.0239 37.0316 54.2291 37.6139C54.4343 38.1962 54.6297 38.771 54.7494 39.194C54.7763 39.291 54.7836 39.3358 54.8007 39.413C54.7396 39.4603 54.7103 39.4876 54.6297 39.5424C54.1774 39.8449 53.7163 40.1337 53.2471 40.4083C52.7267 40.7194 52.1893 41.0354 51.7325 41.3315C51.5053 41.4808 51.3001 41.6201 51.1096 41.7744C50.9166 41.9287 50.7382 42.0332 50.5184 42.4264C50.2985 42.817 50.2985 43.0236 50.2643 43.2724C50.2337 43.5318 50.215 43.7926 50.2081 44.0538C50.1837 44.6062 50.1837 45.2357 50.1837 45.8578C50.1837 46.4774 50.1788 47.0821 50.1495 47.525C50.1422 47.6246 50.1349 47.6669 50.1251 47.749C50.0518 47.7739 50.0176 47.7863 49.9248 47.8112C49.5095 47.9157 48.9305 48.0277 48.3369 48.1347C47.7433 48.2466 47.1375 48.3536 46.6098 48.4706C46.3626 48.5233 46.118 48.5881 45.8769 48.6647C45.6424 48.7418 45.4372 48.7792 45.0952 49.0753C44.7581 49.3664 44.6897 49.568 44.5773 49.7894C44.4616 50.0207 44.3564 50.2574 44.2622 50.4986C44.057 51.0112 43.8494 51.6084 43.6417 52.1907C43.4341 52.7705 43.224 53.3353 43.0506 53.7385C43.0115 53.8305 42.9895 53.8629 42.9528 53.935C42.8844 53.935 42.8478 53.935 42.7574 53.9102C42.2226 53.8413 41.6898 53.7567 41.1598 53.6563C40.5686 53.5493 39.9579 53.4374 39.4254 53.3652C39.1735 53.3271 38.9199 53.3014 38.6656 53.2881C38.4213 53.2881 38.2161 53.2483 37.796 53.405C37.3782 53.5618 37.2463 53.7235 37.068 53.8902C36.883 54.0686 36.7061 54.2554 36.5379 54.4501C36.1739 54.8582 35.7806 55.3459 35.3922 55.8187C35.0038 56.2915 34.6202 56.7469 34.3247 57.0629L34.1781 57.2147C34.1097 57.1848 34.0706 57.1724 33.99 57.1326C33.5103 56.8793 33.0378 56.6121 32.5731 56.3313C32.0504 56.0228 31.5129 55.7043 31.0341 55.4455C30.8118 55.3219 30.5835 55.2098 30.3501 55.1095C30.1229 55.015 29.947 54.9055 29.5 54.9055C29.053 54.9055 28.8722 55.015 28.645 55.1095C28.4118 55.212 28.1836 55.3258 27.961 55.4505C27.4822 55.7092 26.9497 56.0277 26.4269 56.3338C25.9041 56.6424 25.3936 56.9385 25.01 57.1301C24.9294 57.1724 24.8903 57.1848 24.8244 57.2147C24.7706 57.1624 24.7389 57.1326 24.6778 57.0654C24.3798 56.7469 23.9938 56.294 23.6078 55.8212C23.217 55.3484 22.8261 54.8582 22.4621 54.4501C22.2939 54.2553 22.1171 54.0685 21.932 53.8902C21.7537 53.7235 21.6218 53.5618 21.204 53.405C20.7839 53.2483 20.5787 53.2781 20.3344 53.2881C20.0901 53.2881 19.8434 53.3279 19.5771 53.3652C19.0397 53.4399 18.4314 53.5518 17.8402 53.6563C17.2466 53.7633 16.6652 53.8629 16.2402 53.9102C16.1522 53.9102 16.118 53.9102 16.0447 53.935C16.0105 53.8654 15.9885 53.833 15.9494 53.7409C15.7784 53.3353 15.5659 52.7705 15.3583 52.1882C15.1506 51.6084 14.943 51.0112 14.7378 50.4961C14.6437 50.2557 14.5385 50.0199 14.4227 49.7894C14.3103 49.5655 14.2419 49.3664 13.9023 49.0728C13.5628 48.7792 13.3576 48.7418 13.1255 48.6647C12.8844 48.5881 12.6398 48.5233 12.3926 48.4706C11.8625 48.3512 11.2567 48.2467 10.6631 48.1372C10.0695 48.0277 9.49052 47.9132 9.07524 47.8112C8.98241 47.7863 8.94576 47.7714 8.87492 47.7465C8.86515 47.6669 8.85782 47.6221 8.85049 47.5225C8.82118 47.0821 8.81873 46.4774 8.81629 45.8553C8.81629 45.2357 8.81629 44.6062 8.79186 44.0538C8.78503 43.7917 8.76628 43.5302 8.73568 43.2699C8.70392 43.0236 8.70392 42.817 8.48162 42.4239C8.26176 42.0332 8.08343 41.9262 7.89045 41.7744C7.68755 41.6164 7.47721 41.4686 7.26019 41.3315C6.80581 41.0354 6.27083 40.7194 5.74806 40.4108C5.22773 40.0973 4.72205 39.7887 4.3654 39.5424C4.28478 39.4876 4.25547 39.4603 4.1944 39.413C4.2115 39.3358 4.21882 39.2885 4.24569 39.194C4.36539 38.771 4.56327 38.1962 4.76603 37.6139C4.97123 37.0316 5.18131 36.4344 5.34254 35.9069C5.4256 35.6431 5.49644 35.4042 5.54774 35.1604C5.59904 34.9165 5.66989 34.7174 5.5966 34.2745C5.52087 33.8316 5.38651 33.6599 5.25704 33.4484C5.11959 33.2307 4.97203 33.0197 4.81489 32.8163C4.4851 32.3784 4.08691 31.8956 3.70094 31.4179C3.31741 30.9426 2.94365 30.4748 2.68959 30.1189C2.63097 30.0368 2.60898 29.997 2.56745 29.9298C2.60898 29.8626 2.63097 29.8228 2.68959 29.7407C2.94365 29.3849 3.31741 28.9146 3.70094 28.4393C4.08691 27.9615 4.48266 27.4763 4.81489 27.0384C4.97856 26.8194 5.12757 26.6129 5.25704 26.4013C5.38651 26.1898 5.52087 26.0281 5.5966 25.5852C5.67233 25.1422 5.59904 24.9432 5.54774 24.7018C5.49098 24.4473 5.4225 24.1957 5.34254 23.9478C5.17887 23.4203 4.97123 22.8281 4.76603 22.2458C4.57769 21.7243 4.40418 21.1974 4.24569 20.6657C4.21882 20.5686 4.2115 20.5263 4.1944 20.4492C4.25547 20.3994 4.28478 20.372 4.3654 20.3173C4.71961 20.0685 5.22773 19.7624 5.74806 19.4514C6.27083 19.1403 6.80582 18.8243 7.26263 18.5307C7.48982 18.3814 7.6999 18.2345 7.89045 18.0828C8.08343 17.926 8.26176 17.8215 8.48162 17.4308C8.70147 17.0376 8.70148 16.8261 8.73568 16.5798C8.76744 16.3309 8.78209 16.0796 8.79186 15.8009C8.81629 15.2485 8.81629 14.614 8.81629 13.9944C8.81629 13.3723 8.82118 12.7676 8.85049 12.3272C8.85538 12.2276 8.86515 12.1878 8.87492 12.1082C8.94821 12.0833 8.98241 12.0684 9.07524 12.046C9.49052 11.9415 10.0695 11.8345 10.6631 11.7225C11.2567 11.6155 11.8625 11.5085 12.3902 11.3891C12.6375 11.3348 12.8821 11.2684 13.1231 11.19C13.3576 11.1129 13.5628 11.0805 13.9048 10.7869C14.2419 10.4933 14.3103 10.2917 14.4227 10.0727C14.535 9.84878 14.6352 9.61736 14.7378 9.36355C14.943 8.85095 15.1506 8.25374 15.3583 7.67146C15.5659 7.08919 15.776 6.51935 15.9494 6.11624L16.0398 5.92214C16.1131 5.92214 16.1498 5.92215 16.2402 5.94703C16.6652 5.99182 17.2466 6.09135 17.8402 6.19835C18.4314 6.30535 19.0421 6.41733 19.5747 6.48949C19.8434 6.52682 20.0901 6.55667 20.3344 6.56663C20.5787 6.56663 20.7839 6.61391 21.204 6.45714C21.6218 6.30038 21.7537 6.13863 21.932 5.96942C22.1169 5.79193 22.2938 5.60594 22.4621 5.41203C22.8261 5.00145 23.2194 4.51622 23.6078 4.04095C23.9962 3.56816 24.3798 3.10532 24.6754 2.78681C24.7389 2.71963 24.7731 2.69723 24.8219 2.64498H24.8244ZM29.5 8.78874C18.0454 8.78874 8.73568 18.2719 8.73568 29.9398C8.73568 41.6077 18.0454 51.0908 29.5 51.0908C40.9546 51.0908 50.2643 41.6077 50.2643 29.9398C50.2643 18.2719 40.9546 8.78874 29.5 8.78874ZM29.5 11.1353C31.9246 11.1333 34.3258 11.6184 36.5661 12.5628C38.8065 13.5071 40.842 14.8923 42.5563 16.6389C44.2705 18.3855 45.6298 20.4593 46.5563 22.7417C47.4828 25.024 47.9584 27.47 47.9558 29.9398C47.9584 32.4093 47.4828 34.8551 46.5562 37.1372C45.6296 39.4192 44.2703 41.4927 42.556 43.2389C40.8417 44.9851 38.8061 46.3698 36.5658 47.3136C34.3255 48.2575 31.9244 48.742 29.5 48.7393C27.0756 48.742 24.6745 48.2575 22.4342 47.3136C20.1939 46.3698 18.1583 44.9851 16.444 43.2389C14.7297 41.4927 13.3704 39.4192 12.4438 37.1372C11.5172 34.8551 11.0416 32.4093 11.0442 29.9398C11.0416 27.47 11.5172 25.024 12.4437 22.7417C13.3702 20.4593 14.7295 18.3855 16.4437 16.6389C18.158 14.8923 20.1935 13.5071 22.4339 12.5628C24.6742 11.6184 27.0754 11.1333 29.5 11.1353ZM29.4438 18.028C28.7085 18.028 28.3885 18.4137 28.1442 18.6849C27.9081 18.9569 27.7002 19.2529 27.5237 19.5683C27.1451 20.2128 26.7738 20.9867 26.4122 21.7705C26.0507 22.5543 25.6989 23.3481 25.4058 23.9478C25.2592 24.2464 25.1273 24.5027 25.0296 24.667C25.01 24.6993 25.0002 24.7093 24.9807 24.7341C24.9563 24.7341 24.9441 24.759 24.9099 24.759C24.7266 24.8063 24.4531 24.8586 24.1282 24.9083C23.4759 25.0178 22.6307 25.1223 21.783 25.2393C20.9402 25.3562 20.0974 25.4881 19.3792 25.6673C19.0332 25.7457 18.696 25.86 18.3728 26.0082C18.0479 26.1649 17.5935 26.3566 17.3712 27.0682C17.1489 27.7799 17.4054 28.2054 17.5813 28.5264C17.7572 28.8449 17.9721 29.1112 18.2164 29.3973C18.7001 29.9622 19.3108 30.5619 19.9338 31.1541C20.5567 31.7488 21.1894 32.3336 21.6609 32.8014C21.8954 33.0353 22.0932 33.2418 22.2154 33.3862C22.2349 33.411 22.2374 33.421 22.252 33.4434C22.252 33.4757 22.2594 33.4882 22.2569 33.5255C22.2361 33.798 22.2044 34.0694 22.1616 34.3392C22.059 35.0011 21.8978 35.8471 21.7464 36.7007C21.5949 37.5542 21.4532 38.4052 21.3995 39.1542C21.3702 39.5274 21.3628 39.8758 21.4068 40.2391C21.4557 40.6024 21.4923 41.1001 22.0908 41.5355C22.6869 41.971 23.1632 41.8491 23.5174 41.7794C23.8652 41.7015 24.2041 41.5872 24.5288 41.4385C25.2079 41.1449 25.9579 40.7418 26.7029 40.3187C27.4504 39.9007 28.1906 39.4702 28.7745 39.1592C29.0676 39.0049 29.3217 38.8829 29.4951 38.8108C29.5318 38.7859 29.544 38.7859 29.5757 38.7859C29.8443 38.8977 30.1084 39.0206 30.3672 39.1542C30.956 39.4578 31.6961 39.8758 32.4485 40.2864C33.2009 40.697 33.9558 41.1001 34.6398 41.3862C34.9818 41.5281 35.2994 41.6425 35.656 41.7097C36.0102 41.7794 36.4866 41.8939 37.0778 41.4484C37.6689 41.0055 37.708 40.5054 37.7495 40.1421C37.7848 39.7829 37.7832 39.4209 37.7447 39.0621C37.6811 38.3156 37.5248 37.4596 37.3636 36.6086C37.2023 35.7551 37.0338 34.9115 36.9239 34.2496C36.8768 33.9825 36.8401 33.7135 36.8139 33.4434V33.3663C36.9995 33.1384 37.1952 32.9192 37.4002 32.7093C37.8644 32.2365 38.4946 31.6443 39.1102 31.0421C39.7258 30.4449 40.3316 29.8427 40.808 29.2704C41.0474 28.9818 41.2551 28.7056 41.4285 28.3846C41.5995 28.0611 41.856 27.6405 41.6239 26.9314C41.3919 26.2222 40.935 26.0306 40.6077 25.8763C40.281 25.7309 39.9404 25.62 39.5915 25.5453C38.7962 25.3757 37.9931 25.2461 37.1852 25.1572C36.34 25.0502 35.4899 24.9531 34.8401 24.8586C34.5752 24.8195 34.312 24.7697 34.0511 24.7093C34.0193 24.7093 34.012 24.6844 33.9851 24.6844C33.9656 24.6595 33.9533 24.6495 33.9314 24.6172C33.7954 24.3859 33.6682 24.1493 33.5503 23.908C33.2498 23.3108 32.8858 22.527 32.5145 21.7456C32.1724 20.9971 31.7942 20.2662 31.381 19.5559C31.1995 19.2424 30.9867 18.9488 30.7459 18.68C30.4967 18.4112 30.1767 18.033 29.4438 18.038V18.028ZM29.4609 21.1633C29.7247 21.6287 30.013 22.1761 30.3159 22.8156C30.6775 23.5721 31.0366 24.3659 31.3712 25.0303C31.5374 25.3637 31.6961 25.6623 31.8598 25.931C32.0284 26.1998 32.1359 26.4287 32.534 26.7174C32.9347 27.0085 33.1814 27.0384 33.4843 27.1105C33.7872 27.1852 34.1194 27.2424 34.481 27.2972C35.209 27.4066 36.064 27.5037 36.8848 27.6082C37.5761 27.6953 38.177 27.7948 38.6925 27.8993C38.3407 28.2975 37.9181 28.7454 37.4149 29.2356C36.8188 29.8179 36.1886 30.4126 35.6682 30.9401C35.4093 31.2064 35.1797 31.4502 34.9842 31.6941C34.7815 31.9379 34.5958 32.1121 34.4468 32.5899C34.3002 33.0627 34.3491 33.3115 34.376 33.6275C34.4004 33.9436 34.4492 34.282 34.5103 34.6478C34.6325 35.3868 34.8108 36.2403 34.9671 37.0689C35.099 37.7657 35.1919 38.3778 35.2529 38.9103C34.6955 38.6549 34.1471 38.3793 33.6089 38.0842C32.876 37.686 32.1261 37.263 31.4714 36.9246C31.1723 36.7668 30.8667 36.6223 30.5553 36.4916C30.2646 36.3722 30.0423 36.2478 29.5537 36.2528C29.0603 36.2528 28.8453 36.3846 28.5546 36.5066C28.2688 36.6285 27.9683 36.7803 27.6434 36.9545C26.9936 37.2979 26.2461 37.7308 25.5206 38.1389C24.9099 38.4823 24.3627 38.761 23.8839 38.985C23.9401 38.45 24.0304 37.8354 24.1526 37.1386C24.2992 36.31 24.4628 35.4515 24.5752 34.7125C24.6338 34.3442 24.6729 34.0083 24.6973 33.6922C24.7169 33.3762 24.7633 33.1249 24.6094 32.6521C24.4555 32.1793 24.2723 32.0076 24.072 31.7662C23.8482 31.5071 23.6135 31.258 23.3684 31.0197C22.8432 30.4972 22.2081 29.9124 21.6047 29.3376C21.1577 28.9131 20.7259 28.4723 20.31 28.0163C20.8278 27.9068 21.4288 27.7923 22.1177 27.7003C22.9385 27.5858 23.7886 27.4838 24.5141 27.3643C24.8757 27.3046 25.2054 27.2399 25.5059 27.1653C25.8088 27.0881 26.0605 27.0583 26.4562 26.7622C26.8519 26.4636 26.9521 26.2346 27.1158 25.9659C27.277 25.6922 27.4333 25.3911 27.597 25.0551C27.9219 24.3858 28.2761 23.592 28.6279 22.8305C28.921 22.1885 29.2044 21.6312 29.4609 21.1633ZM14.1197 55.5525C14.2321 55.7565 14.3469 55.9655 14.7476 56.2044C15.2044 56.4757 15.4609 56.4383 15.7198 56.4458C15.9812 56.4458 16.2353 56.4209 16.5089 56.4035C17.0536 56.3438 17.6619 56.2343 18.2628 56.1248C18.8662 56.0178 19.4574 55.9108 19.9044 55.8511C20.0901 55.8262 20.2245 55.8113 20.3393 55.8013C20.4223 55.8834 20.52 55.983 20.6495 56.1248C20.9549 56.4707 21.3433 56.9459 21.7366 57.4237L21.932 57.6526L17.0756 66.225L15.9739 62.0346C15.8829 61.6929 15.6626 61.402 15.3612 61.2256C15.0598 61.0493 14.7021 61.0019 14.3665 61.0941L10.2869 62.2063L14.1173 55.5525H14.1197ZM44.8729 55.5774L48.6985 62.2213L44.6189 61.1065C44.283 61.0161 43.9256 61.0652 43.6252 61.243C43.3247 61.4207 43.1058 61.7126 43.0164 62.0546L41.9146 66.235L37.0582 57.6726C37.1266 57.588 37.195 57.5183 37.2634 57.4337C37.6543 56.9534 38.0451 56.4806 38.3505 56.1348C38.4501 56.0232 38.5536 55.9153 38.6607 55.8113C38.7755 55.8113 38.9099 55.8411 39.0956 55.861C39.5426 55.9208 40.1338 56.0278 40.7372 56.1348C41.3381 56.2418 41.9464 56.3512 42.4911 56.4134C42.7647 56.4433 43.0188 56.4632 43.2802 56.4557C43.5391 56.4557 43.7956 56.4856 44.2524 56.2144C44.5189 56.0724 44.7356 55.8499 44.8729 55.5774Z" fill="#F5731C"/>
</svg>
