<svg width="71" height="59" viewBox="0 0 71 59" fill="none" xmlns="http://www.w3.org/2000/svg">
<path fill-rule="evenodd" clip-rule="evenodd" d="M58.5409 35.4474C58.9341 33.5264 59.1406 31.5373 59.1406 29.5C59.1406 24.8046 58.0437 20.3655 56.092 16.4249H57.9922L60.4883 20.169C60.5842 20.3146 60.7146 20.4341 60.868 20.517C61.0214 20.5998 61.1929 20.6433 61.3672 20.6436H66.9922C67.4584 20.6436 67.9055 20.8288 68.2352 21.1585C68.5648 21.4881 68.75 21.9352 68.75 22.4014V41.0342C68.75 41.314 68.8611 41.5822 69.0589 41.78C69.2567 41.9778 69.525 42.0889 69.8047 42.0889C70.0844 42.0889 70.3527 41.9778 70.5505 41.78C70.7483 41.5822 70.8594 41.314 70.8594 41.0342V22.4014C70.8548 21.3772 70.4458 20.3963 69.7216 19.672C68.9974 18.9478 68.0164 18.5389 66.9922 18.5342H61.9297L59.4336 14.7901C59.3377 14.6445 59.2073 14.525 59.0539 14.4422C58.9005 14.3593 58.729 14.3158 58.5547 14.3155H54.9377C49.7781 5.73809 40.3795 0 29.6406 0C13.3482 0 0.140625 13.2076 0.140625 29.5C0.140625 45.7924 13.3482 59 29.6406 59C39.8396 59 48.8298 53.8243 54.1279 45.9561H65.252L68.7676 49.8233C68.8651 49.9323 68.9842 50.0199 69.1173 50.0804C69.2505 50.1409 69.3948 50.1731 69.541 50.1749C69.8085 50.1776 70.0668 50.0768 70.2617 49.8936C70.4646 49.7058 70.5857 49.4459 70.5988 49.1697C70.612 48.8936 70.5162 48.6233 70.332 48.4171L58.5409 35.4474ZM57.9262 37.9042L57.4473 37.378C56.1582 38.387 54.5667 38.932 52.9297 38.9249C51.4878 38.9259 50.0772 38.5046 48.872 37.7132C47.6667 36.9217 46.7196 35.7946 46.1476 34.4711C45.5755 33.1475 45.4036 31.6854 45.6529 30.2653C45.9023 28.8451 46.5621 27.5291 47.5508 26.4796L42.2422 20.6436H38.8672C38.401 20.6436 37.9539 20.8288 37.6242 21.1585C37.2946 21.4881 37.1094 21.9352 37.1094 22.4014V42.0889C37.1094 42.5551 37.2946 43.0022 37.6242 43.3319C37.9539 43.6615 38.401 43.8467 38.8672 43.8467H55.4231C55.0203 44.5691 54.588 45.2728 54.1279 45.9561H38.8672C37.843 45.9515 36.862 45.5426 36.1378 44.8183C35.4135 44.0941 35.0046 43.1131 35 42.0889V22.4014C35.0046 21.3772 35.4135 20.3963 36.1378 19.672C36.862 18.9478 37.843 18.5389 38.8672 18.5342H40.3262L35.5273 13.2608C35.3432 13.0546 35.2474 12.7843 35.2605 12.5081C35.2737 12.232 35.3947 11.972 35.5977 11.7842C35.6991 11.6882 35.8188 11.6136 35.9498 11.5649C36.0807 11.5163 36.2202 11.4946 36.3597 11.5011C36.4992 11.5077 36.636 11.5424 36.7618 11.6031C36.8876 11.6639 36.9999 11.7494 37.0918 11.8546L58.5409 35.4474C58.3705 36.2796 58.1651 37.0991 57.9262 37.9042ZM57.9262 37.9042C57.3072 39.991 56.4634 41.9812 55.4231 43.8467H63.3359L57.9262 37.9042ZM54.9377 14.3155H47.3047C47.1304 14.3158 46.9589 14.3593 46.8055 14.4422C46.6521 14.525 46.5217 14.6445 46.4258 14.7901L46.0742 15.3174C45.9887 15.4326 45.9276 15.564 45.8946 15.7035C45.8616 15.8431 45.8574 15.9879 45.8823 16.1292C45.9072 16.2704 45.9606 16.4051 46.0393 16.525C46.118 16.6449 46.2204 16.7474 46.34 16.8264C46.4597 16.9054 46.5943 16.9592 46.7355 16.9844C46.8766 17.0097 47.0215 17.0058 47.1611 16.9732C47.3008 16.9405 47.4323 16.8797 47.5476 16.7945C47.663 16.7093 47.7598 16.6015 47.832 16.4776L47.8672 16.4249H56.092C55.7353 15.7046 55.3501 15.001 54.9377 14.3155ZM56.0234 35.8135L48.9746 28.0616C48.1231 29.0361 47.6597 30.2896 47.6725 31.5836C47.6853 32.8776 48.1735 34.1217 49.0441 35.0792C49.9146 36.0366 51.1069 36.6405 52.3938 36.7759C53.6808 36.9113 54.9726 36.5688 56.0234 35.8135Z" fill="#5189CC"/>
</svg>
