<svg width="53" height="53" viewBox="0 0 53 53" fill="none" xmlns="http://www.w3.org/2000/svg">
<path d="M7.84648 4.14073C7.7382 4.01686 7.60601 3.91614 7.45785 3.84461C7.30968 3.77308 7.14859 3.73223 6.98424 3.72449C6.81989 3.71676 6.65568 3.74231 6.50145 3.7996C6.34722 3.8569 6.20615 3.94476 6.08672 4.05792C5.84773 4.27909 5.70515 4.58526 5.68966 4.91052C5.67417 5.23577 5.78702 5.5541 6.00391 5.79698L11.6559 12.0079H9.9375C8.7312 12.0134 7.57586 12.495 6.72287 13.348C5.86987 14.201 5.38826 15.3563 5.38281 16.5626V39.7501C5.38826 40.9564 5.86987 42.1117 6.72287 42.9647C7.57586 43.8177 8.7312 44.2994 9.9375 44.3048H41.0129L45.1535 48.8595C45.2683 48.9879 45.4086 49.091 45.5654 49.1623C45.7223 49.2336 45.8922 49.2715 46.0645 49.2735C46.3795 49.2767 46.6837 49.1581 46.9133 48.9423C47.1523 48.7211 47.2949 48.415 47.3103 48.0897C47.3258 47.7644 47.213 47.4461 46.9961 47.2032L7.84648 4.14073ZM21.8418 23.229L30.1438 32.3591C28.9061 33.2486 27.3847 33.652 25.8689 33.4925C24.3531 33.3331 22.9489 32.6218 21.9236 31.4942C20.8982 30.3665 20.3233 28.9012 20.3082 27.3772C20.2931 25.8531 20.839 24.3767 21.8418 23.229ZM9.9375 41.8204C9.38842 41.8204 8.86183 41.6023 8.47357 41.214C8.08531 40.8258 7.86719 40.2992 7.86719 39.7501V16.5626C7.86719 16.0135 8.08531 15.4869 8.47357 15.0987C8.86183 14.7104 9.38842 14.4923 9.9375 14.4923H13.9125L20.1648 21.3657C19.0004 22.6018 18.2233 24.1518 17.9296 25.8245C17.6359 27.4971 17.8384 29.2191 18.5122 30.778C19.1859 32.3368 20.3014 33.6643 21.7209 34.5964C23.1404 35.5286 24.8018 36.0247 26.5 36.0235C28.428 36.032 30.3025 35.3901 31.8207 34.2017L38.7562 41.8204H9.9375ZM47.6172 16.5626V38.5079C47.6172 38.8374 47.4863 39.1533 47.2534 39.3863C47.0204 39.6192 46.7044 39.7501 46.375 39.7501C46.0456 39.7501 45.7296 39.6192 45.4966 39.3863C45.2637 39.1533 45.1328 38.8374 45.1328 38.5079V16.5626C45.1328 16.0135 44.9147 15.4869 44.5264 15.0987C44.1382 14.7104 43.6116 14.4923 43.0625 14.4923H36.4375C36.2322 14.4919 36.0302 14.4407 35.8496 14.3431C35.6689 14.2456 35.5153 14.1048 35.4023 13.9333L32.4625 9.52355H20.5375L20.4961 9.58566C20.411 9.73156 20.297 9.85857 20.1612 9.95892C20.0253 10.0593 19.8704 10.1309 19.7059 10.1693C19.5414 10.2078 19.3709 10.2123 19.2046 10.1826C19.0383 10.1529 18.8798 10.0895 18.7389 9.9965C18.5979 9.90346 18.4774 9.78264 18.3847 9.64144C18.292 9.50024 18.2291 9.34162 18.1998 9.17527C18.1705 9.00892 18.1754 8.83834 18.2142 8.67397C18.2531 8.50959 18.3251 8.35486 18.4258 8.21925L18.8398 7.59816C18.9528 7.4267 19.1064 7.2859 19.2871 7.18835C19.4677 7.0908 19.6697 7.03955 19.875 7.03917H33.125C33.3303 7.03955 33.5323 7.0908 33.7129 7.18835C33.8936 7.2859 34.0472 7.4267 34.1602 7.59816L37.1 12.0079H43.0625C44.2688 12.0134 45.4241 12.495 46.2771 13.348C47.1301 14.201 47.6117 15.3563 47.6172 16.5626Z" fill="#F5731C"/>
</svg>
