<svg width="71" height="59" viewBox="0 0 71 59" fill="none" xmlns="http://www.w3.org/2000/svg">
<path fill-rule="evenodd" clip-rule="evenodd" d="M59.6492 30.6919C59.6649 30.2966 59.6729 29.8992 59.6729 29.5C59.6729 23.6226 57.954 18.1466 54.9916 13.5473C55.0693 13.4863 55.1422 13.4297 55.21 13.3775C57.5127 15.1528 65.7217 21.9907 67.7607 30.6919H59.6492ZM59.4902 32.8013C59.5677 32.1052 59.621 31.4018 59.6492 30.6919H42.6592C44.6382 22.2468 52.4294 15.5569 54.9916 13.5473C54.6107 12.9559 54.2092 12.379 53.7882 11.8176C54.0604 11.6078 54.3351 11.4012 54.6123 11.1978C54.7851 11.0693 54.9947 11 55.21 11C55.4253 11 55.6348 11.0693 55.8076 11.1978C58.4604 13.1443 60.884 15.3852 63.0322 17.8775C67.8135 23.3618 70.3271 29.1275 70.3271 34.5591C70.3271 38.5684 68.7345 42.4135 65.8994 45.2486C63.0644 48.0836 59.2193 49.6763 55.21 49.6763C54.1259 49.6763 53.0538 49.5598 52.0104 49.3339C52.5576 48.7317 53.0803 48.1069 53.5768 47.4609C54.1158 47.5293 54.6612 47.564 55.21 47.564C58.5079 47.564 61.682 46.308 64.0869 44.0513H55.8402C56.2302 43.3649 56.5934 42.6613 56.9285 41.9419H65.915C66.659 40.8611 67.2395 39.6765 67.6377 38.4263H58.2983C58.5178 37.7339 58.7125 37.0304 58.8813 36.3169H68.0947C68.18 35.7349 68.2212 35.1473 68.2178 34.5591C68.2182 33.9716 68.183 33.3845 68.1123 32.8013H59.4902ZM59.4902 32.8013C59.3571 33.9962 59.1527 35.1695 58.8813 36.3169H42.3252C42.1671 35.1507 42.1612 33.969 42.3076 32.8013H59.4902ZM58.2983 38.4263H42.7822C43.1805 39.6765 43.7609 40.8611 44.5049 41.9419H56.9285C57.457 40.8074 57.9154 39.6337 58.2983 38.4263ZM55.8402 44.0513H46.333C48.3377 45.9324 50.8769 47.1183 53.5768 47.4609C54.4068 46.381 55.1637 45.242 55.8402 44.0513ZM52.0104 49.3339C46.614 55.2719 38.8288 59 30.1729 59C13.8805 59 0.672852 45.7924 0.672852 29.5C0.672852 13.2076 13.8805 0 30.1729 0C39.8321 0 48.407 4.64236 53.7882 11.8176C51.456 13.6154 49.3114 15.6456 47.3877 17.8775C42.6064 23.3618 40.0928 29.1275 40.0928 34.5591C40.0928 38.5684 41.6855 42.4135 44.5205 45.2486C46.589 47.317 49.1951 48.7241 52.0104 49.3339Z" fill="#5189CC"/>
</svg>
