<svg width="35" height="29" viewBox="0 0 35 29" fill="none" xmlns="http://www.w3.org/2000/svg">
<path d="M31.25 6.04167H27.5V2.41667C27.5 1.77573 27.2366 1.16104 26.7678 0.707825C26.2989 0.254612 25.663 0 25 0H10C9.33696 0 8.70107 0.254612 8.23223 0.707825C7.76339 1.16104 7.5 1.77573 7.5 2.41667V6.04167H3.75C2.75544 6.04167 1.80161 6.42358 1.09835 7.1034C0.395088 7.78322 0 8.70526 0 9.66667V26.5833C0 27.2243 0.263392 27.839 0.732233 28.2922C1.20107 28.7454 1.83696 29 2.5 29H32.5C33.163 29 33.7989 28.7454 34.2678 28.2922C34.7366 27.839 35 27.2243 35 26.5833V9.66667C35 8.70526 34.6049 7.78322 33.9016 7.1034C33.1984 6.42358 32.2446 6.04167 31.25 6.04167ZM10 2.41667H25V6.04167H10V2.41667ZM32.5 26.5833H2.5V15.7083H12.5V21.75H22.5V15.7083H32.5V26.5833ZM15 15.7083H20V19.3333H15V15.7083ZM2.5 13.2917V9.66667C2.5 9.3462 2.6317 9.03885 2.86612 8.81225C3.10054 8.58564 3.41848 8.45833 3.75 8.45833H31.25C31.5815 8.45833 31.8995 8.58564 32.1339 8.81225C32.3683 9.03885 32.5 9.3462 32.5 9.66667V13.2917H2.5Z" fill="white"/>
</svg>
