<svg width="27" height="27" viewBox="0 0 27 27" fill="none" xmlns="http://www.w3.org/2000/svg">
<g opacity="0.5">
<path d="M20.25 10.9688H18.5625C18.5618 10.2976 18.2949 9.65418 17.8204 9.17963C17.3458 8.70507 16.7024 8.43817 16.0312 8.4375V6.75C17.1497 6.75134 18.222 7.19624 19.0129 7.98712C19.8038 8.778 20.2487 9.85028 20.25 10.9688V10.9688Z" fill="white"/>
<path d="M23.6252 10.9688H21.9377C21.9359 9.40287 21.313 7.90163 20.2058 6.79438C19.0985 5.68713 17.5973 5.06429 16.0314 5.06251V3.37501C18.0447 3.37724 19.9749 4.17801 21.3985 5.60163C22.8222 7.02525 23.6229 8.95545 23.6252 10.9688V10.9688ZM17.1561 18.1254L19.0461 16.2354C19.2991 15.9824 19.6208 15.8091 19.9713 15.7372C20.3218 15.6652 20.6857 15.6976 21.018 15.8304L23.3197 16.7518C23.659 16.8876 23.9498 17.1218 24.1546 17.4244C24.3595 17.727 24.4689 18.084 24.4689 18.4494V22.6353C24.4695 22.8841 24.4193 23.1304 24.3214 23.3591C24.2235 23.5878 24.08 23.7941 23.8996 23.9655C23.7192 24.1368 23.5057 24.2695 23.2722 24.3554C23.0388 24.4414 22.7902 24.4788 22.5418 24.4654C6.40761 23.4613 3.14904 9.79594 2.54407 4.56301C2.51477 4.30718 2.53997 4.04805 2.618 3.80265C2.69603 3.55726 2.82513 3.33117 2.99681 3.13924C3.16848 2.94732 3.37885 2.79392 3.61406 2.68913C3.84928 2.58434 4.10401 2.53054 4.36151 2.53126H8.47311C8.83851 2.53125 9.19553 2.64072 9.49812 2.84555C9.80071 3.05039 10.035 3.34119 10.1707 3.68044L11.0913 5.98219C11.2241 6.31444 11.2565 6.67837 11.1846 7.02887C11.1126 7.37937 10.9393 7.70105 10.6863 7.95404L8.79626 9.84404C8.79626 9.84404 9.8442 17.2117 17.1561 18.1254Z" fill="white"/>
</g>
</svg>
