<svg width="30" height="22" viewBox="0 0 30 22" fill="none" xmlns="http://www.w3.org/2000/svg">
<path d="M10.3302 21.3353C10.1992 21.3353 10.0696 21.3087 9.94916 21.257C9.82875 21.2054 9.72008 21.1299 9.62974 21.0351L0.290144 11.6955C0.198157 11.6035 0.125189 11.4943 0.0754061 11.3741C0.0256231 11.2539 0 11.1251 0 10.995C0 10.8649 0.0256231 10.7361 0.0754061 10.6159C0.125189 10.4957 0.198157 10.3865 0.290144 10.2945C0.382131 10.2025 0.491335 10.1296 0.611522 10.0798C0.731708 10.03 0.860524 10.0044 0.990613 10.0044C1.1207 10.0044 1.24952 10.03 1.3697 10.0798C1.48989 10.1296 1.5991 10.2025 1.69108 10.2945L10.3302 18.917L28.3089 0.954939C28.4947 0.769163 28.7467 0.664795 29.0094 0.664795C29.2721 0.664795 29.5241 0.769163 29.7099 0.954939C29.8956 1.14072 30 1.39268 30 1.65541C30 1.91814 29.8956 2.1701 29.7099 2.35588L11.0307 21.0351C10.9403 21.1299 10.8317 21.2054 10.7112 21.257C10.5908 21.3087 10.4612 21.3353 10.3302 21.3353Z" fill="#F5731C"/>
</svg>
