<svg width="41" height="41" viewBox="0 0 41 41" fill="none" xmlns="http://www.w3.org/2000/svg">
<g clip-path="url(#clip0_66_222)">
<path d="M2.45615 23.2699C1.71074 22.8133 1.71074 21.6789 2.45615 21.2223C4.46508 19.9917 8.47183 18.5776 10.2767 16.3952C11.814 14.5363 12.3626 10.9236 13.2483 8.66546C13.6484 7.64536 15.3016 7.64536 15.7018 8.66546C16.5875 10.9236 17.136 14.5363 18.6734 16.3952C20.4782 18.5776 24.485 19.9917 26.4939 21.2223C27.2393 21.6789 27.2393 22.8133 26.4939 23.2699C24.485 24.5005 20.4782 25.9146 18.6734 28.097C17.136 29.9559 16.5875 33.5685 15.7018 35.8267C15.3016 36.8468 13.6484 36.8468 13.2483 35.8267C12.3626 33.5685 11.814 29.9559 10.2767 28.097C8.47183 25.9146 4.46508 24.5005 2.45615 23.2699Z" stroke="white" stroke-width="4"/>
<path d="M25.3754 31.7732C24.9065 31.4859 24.9065 30.7724 25.3754 30.4851C26.6391 29.711 28.6819 28.3439 29.8172 26.9711C30.7843 25.8018 31.6069 24.0069 32.164 22.5865C32.4157 21.9448 33.4557 21.9448 33.7074 22.5865C34.2645 24.0069 35.0871 25.8018 36.0542 26.9711C37.1895 28.3439 39.2323 29.711 40.496 30.4851C40.9649 30.7724 40.9649 31.4859 40.496 31.7732C39.2323 32.5473 37.1895 33.9144 36.0542 35.2872C35.0871 36.4565 34.2645 38.2514 33.7074 39.6718C33.4557 40.3135 32.4157 40.3135 32.164 39.6718C31.6069 38.2514 30.7843 36.4565 29.8172 35.2872C28.6819 33.9144 26.6391 32.5473 25.3754 31.7732Z" fill="white"/>
<path d="M22.624 8.97368C22.2759 8.76045 22.2759 8.23076 22.624 8.01753C23.5621 7.44286 25.0785 6.42798 25.9213 5.40891C26.6392 4.54088 27.2499 3.20843 27.6635 2.15395C27.8504 1.67759 28.6224 1.67759 28.8092 2.15395C29.2228 3.20843 29.8335 4.54088 30.5514 5.40891C31.3942 6.42798 32.9106 7.44286 33.8487 8.01753C34.1968 8.23076 34.1968 8.76045 33.8487 8.97368C32.9106 9.54835 31.3942 10.5632 30.5514 11.5823C29.8335 12.4503 29.2228 13.7828 28.8092 14.8373C28.6224 15.3136 27.8504 15.3136 27.6635 14.8373C27.2499 13.7828 26.6392 12.4503 25.9213 11.5823C25.0785 10.5632 23.5621 9.54835 22.624 8.97368Z" fill="white"/>
</g>
<defs>
<clipPath id="clip0_66_222">
<rect width="41" height="41" fill="white"/>
</clipPath>
</defs>
</svg>
