<svg width="54" height="53" viewBox="0 0 54 53" fill="none" xmlns="http://www.w3.org/2000/svg">
<path d="M43.5625 8.69531H10.4375C9.66879 8.69531 8.93156 9.00068 8.388 9.54425C7.84443 10.0878 7.53906 10.825 7.53906 11.5938V23.7465C7.53906 41.9652 23.0043 48.0312 26.0891 49.0457C26.3826 49.1441 26.6904 49.1931 27 49.1906C27.3028 49.1931 27.6039 49.1441 27.8902 49.0457C30.9957 48.0312 46.4609 41.9652 46.4609 23.7465V11.5938C46.4609 10.825 46.1556 10.0878 45.612 9.54425C45.0684 9.00068 44.3312 8.69531 43.5625 8.69531ZM43.9766 23.7465C43.9766 40.2676 29.9398 45.7539 27.1242 46.6856C27.0859 46.7055 27.0432 46.7159 27 46.7159C26.9568 46.7159 26.9141 46.7055 26.8758 46.6856C24.0602 45.7539 10.0234 40.2676 10.0234 23.7465V11.5938C10.0234 11.4839 10.0671 11.3786 10.1447 11.301C10.2224 11.2233 10.3277 11.1797 10.4375 11.1797H43.5625C43.6723 11.1797 43.7776 11.2233 43.8553 11.301C43.9329 11.3786 43.9766 11.4839 43.9766 11.5938V23.7465ZM34.8672 26.5C34.8672 26.8295 34.7363 27.1454 34.5034 27.3784C34.2704 27.6113 33.9544 27.7422 33.625 27.7422H28.2422V33.125C28.2422 33.4545 28.1113 33.7704 27.8784 34.0034C27.6454 34.2363 27.3294 34.3672 27 34.3672C26.6706 34.3672 26.3546 34.2363 26.1216 34.0034C25.8887 33.7704 25.7578 33.4545 25.7578 33.125V27.7422H20.375C20.0456 27.7422 19.7296 27.6113 19.4966 27.3784C19.2637 27.1454 19.1328 26.8295 19.1328 26.5C19.1328 26.1706 19.2637 25.8546 19.4966 25.6216C19.7296 25.3887 20.0456 25.2578 20.375 25.2578H25.7578V19.875C25.7578 19.5456 25.8887 19.2296 26.1216 18.9966C26.3546 18.7637 26.6706 18.6328 27 18.6328C27.3294 18.6328 27.6454 18.7637 27.8784 18.9966C28.1113 19.2296 28.2422 19.5456 28.2422 19.875V25.2578H33.625C33.9544 25.2578 34.2704 25.3887 34.5034 25.6216C34.7363 25.8546 34.8672 26.1706 34.8672 26.5Z" fill="#F5731C"/>
</svg>
