<svg width="39" height="38" viewBox="0 0 39 38" fill="none" xmlns="http://www.w3.org/2000/svg">
<g clip-path="url(#clip0_66_211)">
<path fill-rule="evenodd" clip-rule="evenodd" d="M34.0406 10.583C33.9044 10.1848 33.6115 9.85569 33.2264 9.66783C32.841 9.48033 32.3951 9.44956 31.9865 9.58227C31.5779 9.71498 31.2401 10.0003 31.0473 10.3756L30.9416 10.5561C30.6621 10.9883 30.1405 11.5045 29.4661 11.9431C28.6764 12.4561 27.9809 12.6667 27.625 12.6667H12.6448L15.8948 15.8333H26.338C27.1472 17.423 27.625 19.3198 27.625 21.375C27.625 23.2033 27.2615 24.8686 26.6388 26.3019L32.3749 31.8909C32.2355 31.0894 31.9812 30.3086 31.6176 29.5719C31.2179 28.7961 30.5825 27.9569 29.653 27.4344C30.3604 25.7585 30.7671 23.9767 30.8555 22.1667H34.125C34.556 22.1667 34.9693 21.9999 35.2741 21.7029C35.5788 21.406 35.75 21.0033 35.75 20.5833C35.75 20.1634 35.5788 19.7607 35.2741 19.4637C34.9693 19.1668 34.556 19 34.125 19H30.6995C30.5094 17.7317 30.1697 16.5205 29.6985 15.3963C30.2607 15.1731 30.7954 14.8849 31.2682 14.5778C32.3278 13.8906 33.3791 12.9105 33.9527 11.7911C34.1452 11.4156 34.1768 10.9811 34.0406 10.583ZM26.7942 31.7219L24.4886 29.4754C23.4994 30.4455 22.3441 31.1268 21.125 31.4513V26.1981L17.875 23.0314V31.4513C14.3601 30.5156 11.375 26.6142 11.375 21.375C11.375 19.9336 11.61 18.5701 12.0295 17.3358L4.99929 10.4858C4.9797 10.5323 4.96233 10.5799 4.94727 10.6284C4.82749 11.0142 4.86324 11.4301 5.04725 11.7911C5.61925 12.9105 6.67387 13.8906 7.73175 14.5778C8.22563 14.901 8.75151 15.1752 9.3015 15.3963C8.8199 16.5538 8.48379 17.7638 8.3005 19H4.875C4.44402 19 4.0307 19.1668 3.72595 19.4637C3.4212 19.7607 3.25 20.1634 3.25 20.5833C3.25 21.0033 3.4212 21.406 3.72595 21.7029C4.0307 21.9999 4.44402 22.1667 4.875 22.1667H8.1445C8.23266 23.9772 8.63941 25.7596 9.347 27.436C8.4175 27.9585 7.78213 28.7945 7.38238 29.5735C6.81585 30.7214 6.51464 31.9764 6.5 33.25C6.5 33.6699 6.67121 34.0727 6.97595 34.3696C7.2807 34.6665 7.69402 34.8333 8.125 34.8333C8.55598 34.8333 8.9693 34.6665 9.27405 34.3696C9.57879 34.0727 9.75 33.6699 9.75 33.25C9.76491 32.4683 9.94874 31.6984 10.2895 30.9906C10.5007 30.5789 10.7104 30.3414 10.9151 30.2147C12.9513 33.003 15.9624 34.8333 19.5 34.8333C22.3519 34.8333 24.8616 33.6438 26.7942 31.7219ZM19.1772 19.0315L21.125 20.9294V20.5833C21.125 20.1634 20.9538 19.7607 20.649 19.4637C20.3443 19.1668 19.931 19 19.5 19C19.3908 19 19.2827 19.0107 19.1772 19.0315ZM23.5626 5.81026C22.3275 5.1154 20.9263 4.74971 19.5 4.75C18.0735 4.74944 16.6719 5.11499 15.4364 5.80986C14.201 6.50474 13.1751 7.50443 12.4621 8.70833L11.05 11.0833H27.95L26.5362 8.70833C25.8234 7.50466 24.7978 6.50512 23.5626 5.81026Z" fill="white"/>
<path fill-rule="evenodd" clip-rule="evenodd" d="M5.07692 3.24934C5.76916 2.57485 6.89149 2.57485 7.58372 3.24934L37.1946 32.1009C37.8868 32.7754 37.8868 33.869 37.1946 34.5435C36.5023 35.2179 35.38 35.2179 34.6878 34.5435L5.07692 5.69187C4.38469 5.01738 4.38469 3.92382 5.07692 3.24934Z" fill="white"/>
</g>
<defs>
<clipPath id="clip0_66_211">
<rect width="39" height="38" fill="white"/>
</clipPath>
</defs>
</svg>
