<svg width="69" height="59" viewBox="0 0 69 59" fill="none" xmlns="http://www.w3.org/2000/svg">
<path fill-rule="evenodd" clip-rule="evenodd" d="M54.6113 45.7275C57.6835 41.0722 59.4717 35.4949 59.4717 29.5C59.4717 24.8778 58.4086 20.5039 56.5137 16.6094H66.0674C66.1606 16.6094 66.25 16.6464 66.316 16.7123C66.3819 16.7783 66.4189 16.8677 66.4189 16.9609V27.2793C66.4189 38.4186 58.9032 43.6496 54.6113 45.7275ZM52.2181 48.8745C52.1473 48.8806 52.0761 48.8834 52.0049 48.8828C51.742 48.8849 51.4807 48.8433 51.2314 48.7598C48.6123 47.8984 35.4814 42.748 35.4814 27.2793V16.9609C35.4814 16.3083 35.7407 15.6823 36.2022 15.2208C36.6638 14.7593 37.2897 14.5 37.9424 14.5H55.3788C55.7846 15.1858 56.1633 15.8894 56.5137 16.6094H37.9424C37.8491 16.6094 37.7597 16.6464 37.6938 16.7123C37.6279 16.7783 37.5908 16.8677 37.5908 16.9609V27.2793C37.5908 41.3066 49.5088 45.9648 51.8994 46.7559C51.932 46.7728 51.9682 46.7817 52.0049 46.7817C52.0416 46.7817 52.0778 46.7728 52.1104 46.7559C52.6025 46.593 53.4986 46.2662 54.6113 45.7275C53.8834 46.8305 53.0834 47.8818 52.2181 48.8745ZM52.2181 48.8745C46.81 55.0791 38.8487 59 29.9717 59C13.6793 59 0.47168 45.7924 0.47168 29.5C0.47168 13.2076 13.6793 0 29.9717 0C40.7873 0 50.2435 5.82048 55.3788 14.5H66.0674C66.7201 14.5 67.346 14.7593 67.8075 15.2208C68.269 15.6823 68.5283 16.3083 68.5283 16.9609V27.2793C68.5283 42.748 55.3975 47.8984 52.7607 48.7598C52.585 48.8202 52.4027 48.8587 52.2181 48.8745ZM58.3757 30.363C58.5735 30.1652 58.6846 29.8969 58.6846 29.6172C58.6846 29.3375 58.5735 29.0692 58.3757 28.8714C58.1779 28.6736 57.9096 28.5625 57.6299 28.5625H53.0596V23.9922C53.0596 23.7125 52.9485 23.4442 52.7507 23.2464C52.5529 23.0486 52.2846 22.9375 52.0049 22.9375C51.7252 22.9375 51.4569 23.0486 51.2591 23.2464C51.0613 23.4442 50.9502 23.7125 50.9502 23.9922V28.5625H46.3799C46.1002 28.5625 45.8319 28.6736 45.6341 28.8714C45.4363 29.0692 45.3252 29.3375 45.3252 29.6172C45.3252 29.8969 45.4363 30.1652 45.6341 30.363C45.8319 30.5608 46.1002 30.6719 46.3799 30.6719H50.9502V35.2422C50.9502 35.5219 51.0613 35.7902 51.2591 35.988C51.4569 36.1858 51.7252 36.2969 52.0049 36.2969C52.2846 36.2969 52.5529 36.1858 52.7507 35.988C52.9485 35.7902 53.0596 35.5219 53.0596 35.2422V30.6719H57.6299C57.9096 30.6719 58.1779 30.5608 58.3757 30.363Z" fill="#5189CC"/>
</svg>
