<svg width="42" height="41" viewBox="0 0 42 41" fill="none" xmlns="http://www.w3.org/2000/svg">
<path d="M33.166 29.9608C31.8552 28.6813 31.577 26.768 32.291 25.0989L32.3277 25.0152C33.026 23.3513 34.6185 22.2084 36.4612 22.2084H36.6013C37.7178 22.2084 38.5 21.4448 38.5 20.5001C38.5 19.5554 37.7178 18.7917 36.75 18.7917H36.4525C34.6098 18.7917 33.026 17.6489 32.3277 15.9832L32.291 15.8995C31.577 14.2305 31.8552 12.3172 33.166 11.0376L33.3742 10.8343C33.5367 10.6757 33.6656 10.4874 33.7535 10.2802C33.8415 10.073 33.8867 9.85085 33.8867 9.62654C33.8867 9.40223 33.8415 9.18012 33.7535 8.97289C33.6656 8.76565 33.5367 8.57736 33.3742 8.41875C33.2118 8.26014 33.0189 8.13432 32.8066 8.04848C32.5943 7.96265 32.3668 7.91846 32.137 7.91846C31.9072 7.91846 31.6797 7.96265 31.4674 8.04848C31.2551 8.13432 31.0622 8.26014 30.8997 8.41875L30.6915 8.62204C29.3807 9.90158 27.4208 10.1732 25.711 9.47621L25.6252 9.44033C23.9207 8.76042 22.75 7.20583 22.75 5.40696V5.26858C22.75 4.18037 21.9678 3.41675 21 3.41675C20.0322 3.41675 19.25 4.18037 19.25 5.12508V5.18658C19.25 7.05891 18.095 8.74675 16.3222 9.46254L16.3118 9.46766C15.4452 9.81783 14.4917 9.90929 13.5718 9.7305C12.652 9.5517 11.8071 9.11067 11.144 8.46316L11.1002 8.42046L7.69469 5.09598C7.02319 4.44047 5.95131 4.44046 5.27981 5.09598C4.58502 5.77422 4.58502 6.89152 5.27981 7.56976L34.3053 35.9042C34.9768 36.5597 36.0487 36.5597 36.7202 35.9042C37.415 35.2259 37.415 34.1086 36.7202 33.4304L33.3742 30.1641L33.166 29.9608ZM21 17.0834C21 16.4077 21.2053 15.7471 21.5899 15.1852C21.9744 14.6233 22.5211 14.1854 23.1606 13.9268C23.8001 13.6682 24.5039 13.6006 25.1828 13.7324C25.8617 13.8642 26.4854 14.1896 26.9749 14.6675C27.4644 15.1453 27.7977 15.7541 27.9327 16.4169C28.0678 17.0796 27.9985 17.7666 27.7336 18.3909C27.4687 19.0152 27.0201 19.5488 26.4445 19.9243C25.8689 20.2997 25.1922 20.5001 24.5 20.5001C24.0503 20.5001 23.6233 20.4095 23.226 20.2575L21.2467 18.3254C21.0859 17.93 21.0023 17.5088 21 17.0834ZM14 22.2084C13.5359 22.2084 13.0908 22.0284 12.7626 21.7081C12.4344 21.3877 12.25 20.9532 12.25 20.5001C12.2566 20.1006 12.4079 19.7163 12.677 19.4153L9.50425 16.3181C9.1208 17.0604 8.53419 17.6845 7.8095 18.1211C7.0848 18.5578 6.25036 18.7899 5.39875 18.7917H5.397C4.28225 18.7917 3.5 19.5554 3.5 20.5001C3.5 21.4448 4.28225 22.2084 5.25 22.2084H5.369C6.2905 22.2082 7.19134 22.475 7.9574 22.9749C8.72346 23.4749 9.32028 24.1856 9.67225 25.0169L9.709 25.1006C10.0644 25.9398 10.1571 26.8628 9.97553 27.7534C9.79395 28.6439 9.34618 29.462 8.68875 30.1043L8.62575 30.1658C8.29761 30.4862 8.11326 30.9206 8.11326 31.3736C8.11326 31.8266 8.29761 32.2611 8.62575 32.5814C8.95389 32.9017 9.39894 33.0817 9.863 33.0817C10.3271 33.0817 10.7721 32.9017 11.1002 32.5814L11.1633 32.5199C11.8211 31.8779 12.6592 31.4407 13.5715 31.2634C14.4838 31.0862 15.4294 31.1768 16.289 31.524L16.5393 31.6265C17.3419 31.95 18.028 32.4989 18.5106 33.2036C18.9932 33.9083 19.2506 34.737 19.25 35.5847V35.7299C19.25 36.8198 20.0322 37.5834 21 37.5834C21.9678 37.5834 22.75 36.8181 22.75 35.8751V35.5847C22.75 33.9173 23.744 32.4191 25.2752 31.7136L15.1095 21.7899C14.8027 22.0541 14.4091 22.2026 14 22.2084Z" fill="white"/>
</svg>
