<svg width="74" height="70" viewBox="0 0 74 70" fill="none" xmlns="http://www.w3.org/2000/svg">
<path d="M15.9244 0C15.8747 0.00524453 15.8252 0.0135354 15.7765 0.0248258C14.2409 0.0927116 12.7863 0.736781 11.6987 1.83027C10.6112 2.92375 9.96964 4.38745 9.90028 5.93328C9.88004 6.02454 9.87011 6.11781 9.87068 6.21132V49.6509H1.42751C1.25047 49.6235 1.06964 49.6353 0.897591 49.6855C0.725547 49.7357 0.566422 49.823 0.431293 49.9413C0.405598 49.9651 0.380919 49.9899 0.357318 50.0158C0.312425 50.0621 0.271202 50.1119 0.234024 50.1647C0.223899 50.1778 0.214032 50.191 0.204433 50.2045C0.201039 50.2135 0.197752 50.2226 0.19457 50.2318C0.172481 50.2639 0.151907 50.297 0.132921 50.3311H0.127989C0.0962263 50.3989 0.0706419 50.4696 0.0515477 50.5421C0.04982 50.5503 0.0481755 50.5586 0.0466154 50.5669C0.00353233 50.7201 -0.00986214 50.8803 0.00716173 51.0386V55.8671C0.012643 57.4734 0.636461 59.0149 1.74748 60.1677C2.85849 61.3205 4.37017 61.9947 5.96473 62.0487C6.00457 62.059 6.0449 62.0673 6.08556 62.0735H39.4563V68.754C39.4563 68.9724 39.5134 69.187 39.6221 69.376C39.7307 69.5651 39.887 69.7219 40.0751 69.8307C40.2632 69.9395 40.4765 69.9964 40.6935 69.9957C40.9104 69.9949 41.1233 69.9366 41.3107 69.8265L45.7714 67.1975L49.8969 69.8066C50.0836 69.926 50.2988 69.9926 50.52 69.9994C50.7411 70.0062 50.96 69.953 51.1536 69.8454C51.3473 69.7378 51.5086 69.5796 51.6207 69.3876C51.7328 69.1956 51.7915 68.9767 51.7907 68.754V62.076H57.9554C59.5401 62.0698 61.0616 61.4495 62.204 60.3437C63.3465 59.2379 64.022 57.7317 64.0905 56.1377C64.1103 56.0481 64.1203 55.9565 64.1201 55.8647V12.4251H72.5632C72.738 12.4523 72.9166 12.4413 73.0867 12.3929C73.2569 12.3445 73.4148 12.2598 73.5496 12.1446C73.5529 12.1446 73.5562 12.1446 73.5595 12.1446C73.5878 12.1194 73.6149 12.0929 73.6408 12.0652H73.6458H73.6507C73.7853 11.9259 73.8856 11.7567 73.9434 11.5713C74.0012 11.3859 74.015 11.1894 73.9836 10.9977V6.23863C73.9782 4.64397 73.3633 3.1126 72.2665 1.96213C71.1696 0.81166 69.675 0.130377 68.0926 0.0595829C68.0027 0.0402309 67.9109 0.0310682 67.8189 0.0322718H16.0502C16.0453 0.032242 16.0403 0.032242 16.0354 0.0322718C15.9984 0.0305952 15.9614 0.0305952 15.9244 0.0322718V0ZM16.0354 2.48254C16.0403 2.48257 16.0453 2.48257 16.0502 2.48254C18.1141 2.48254 19.7342 4.12599 19.7342 6.20636V11.0647C19.7266 11.1667 19.7316 11.2693 19.749 11.37C19.7504 11.385 19.752 11.3999 19.7539 11.4147C19.7555 11.423 19.7571 11.4313 19.7589 11.4396C19.8222 11.7479 19.9996 12.0204 20.2551 12.202C20.5105 12.3837 20.825 12.4607 21.1348 12.4177H61.6542V35.9149C61.6531 35.9456 61.6531 35.9762 61.6542 36.0068V55.8622C61.6542 57.9475 60.0267 59.586 57.9554 59.586H51.7907V53.8017C52.0767 53.8017 52.4343 53.8017 52.8214 53.8265C53.2406 53.8265 53.6746 53.8513 54.0741 53.8265C54.2713 53.8265 54.4612 53.8017 54.6757 53.757C54.8903 53.7123 55.1566 53.7247 55.5511 53.3225C55.9481 52.9179 55.9358 52.6523 55.9753 52.4338C56.0172 52.2178 56.032 52.0291 56.0394 51.828C56.0542 51.4259 56.0394 50.9939 56.0246 50.5719C56.0098 50.1498 55.995 49.7328 55.995 49.4374V49.3852C56.0122 49.3852 56.0147 49.3604 56.0344 49.3604C56.286 49.209 56.646 49.0104 57.0159 48.8068C57.3857 48.6032 57.763 48.3997 58.1008 48.1812C58.2685 48.072 58.4263 47.9627 58.5916 47.8187C58.7543 47.6698 58.9836 47.5457 59.1267 46.9995C59.2672 46.4509 59.1267 46.2274 59.0527 46.0189C58.985 45.8257 58.9025 45.6382 58.8061 45.4578C58.6082 45.0893 58.3968 44.7282 58.1724 44.3755C57.9504 44.0155 57.7285 43.6679 57.5805 43.4097C57.5707 43.3849 57.5707 43.3849 57.5608 43.3725C57.5707 43.3477 57.5682 43.3427 57.5805 43.3229C57.7236 43.0647 57.943 42.7146 58.1625 42.3547C58.382 41.9922 58.6014 41.6248 58.7839 41.2673C58.8787 41.0851 58.9595 40.8959 59.0256 40.7013C59.0946 40.4928 59.2302 40.2668 59.0823 39.7207C58.9343 39.1745 58.705 39.0504 58.5398 38.9064C58.3847 38.7755 58.2198 38.6568 58.0466 38.5514C57.692 38.3308 57.3293 38.1238 56.9591 37.9308C56.5893 37.7322 56.2194 37.541 55.9654 37.3945C55.9481 37.3945 55.9457 37.3697 55.9284 37.3697V37.3151C55.9235 37.0197 55.9309 36.6051 55.9432 36.1806C55.9531 35.7585 55.9629 35.3266 55.9432 34.9244C55.9358 34.721 55.9127 34.5185 55.8742 34.3187C55.8322 34.1027 55.8372 33.8395 55.4377 33.4423C55.0358 33.0451 54.7744 33.0501 54.5598 33.0104C54.3612 32.974 54.16 32.9541 53.9582 32.9508C53.5587 32.926 53.1272 32.9508 52.7055 32.9756C52.2863 33.0004 51.877 33.0054 51.5835 33.0054H51.5317L51.5071 32.9558C51.3567 32.7025 51.1619 32.3401 50.9646 31.9677C50.7685 31.5959 50.5588 31.2315 50.3358 30.8754C50.2285 30.7032 50.1082 30.5397 49.9758 30.3863C49.8303 30.2225 49.7045 29.9891 49.1571 29.8476C48.6121 29.7036 48.3902 29.8451 48.1831 29.9122C47.9926 29.9808 47.8079 30.0647 47.6307 30.1629C47.2643 30.3625 46.9057 30.5761 46.5556 30.8034C46.198 31.0293 45.8577 31.2527 45.6013 31.3992C45.5816 31.3992 45.5717 31.424 45.552 31.424C45.5347 31.424 45.5298 31.3992 45.5101 31.3992C45.2536 31.2552 44.9109 31.0442 44.5508 30.8233C44.1933 30.6023 43.8185 30.3714 43.4658 30.1877C43.2868 30.0918 43.1004 30.0105 42.9086 29.9444C42.7039 29.8774 42.4795 29.7458 41.937 29.8923C41.3945 30.0413 41.2663 30.2696 41.1233 30.436C40.9915 30.591 40.8719 30.7562 40.7657 30.93C40.5536 31.2701 40.3514 31.6574 40.1542 32.0298C39.9569 32.4021 39.772 32.7696 39.624 33.0228C39.6141 33.0476 39.6117 33.0476 39.5993 33.0675H39.55C39.2541 33.0675 38.8473 33.0675 38.4256 33.0426C38.0064 33.0426 37.5724 33.0178 37.1729 33.0426C36.9757 33.0426 36.7858 33.0749 36.5712 33.1171C36.3567 33.1593 36.0953 33.1544 35.7008 33.559C35.3062 33.9612 35.3112 34.2243 35.2717 34.4403C35.2348 34.6403 35.2134 34.8428 35.2076 35.0461C35.1928 35.4482 35.2076 35.8802 35.2224 36.3022C35.2372 36.7243 35.252 37.1413 35.252 37.4367V37.4864C35.2347 37.4864 35.2323 37.5112 35.2125 37.5112C34.961 37.6602 34.601 37.8563 34.2311 38.0574C33.8612 38.2609 33.484 38.4695 33.1461 38.6879C32.9736 38.796 32.8096 38.9172 32.6554 39.0504C32.4927 39.1993 32.2634 39.3235 32.1203 39.8696C31.9798 40.4183 32.1203 40.6417 32.1943 40.8502C32.2658 41.0588 32.3472 41.235 32.4409 41.4138C32.6258 41.7688 32.8527 42.1337 33.0746 42.4937C33.2966 42.8537 33.521 43.2037 33.6664 43.4594L33.6862 43.5016C33.6788 43.5264 33.6788 43.5364 33.6664 43.5512C33.5234 43.8094 33.304 44.1545 33.0845 44.517C32.864 44.8707 32.6568 45.2326 32.4631 45.6018C32.3682 45.7848 32.2874 45.9749 32.2214 46.1703C32.1524 46.3789 32.0168 46.6023 32.1647 47.1485C32.3127 47.6946 32.5445 47.8237 32.7072 47.9677C32.8749 48.1117 33.0302 48.2159 33.2004 48.3227C33.5382 48.5362 33.9229 48.7447 34.2928 48.9433C34.6651 49.1419 35.0276 49.3281 35.2791 49.4771C35.2989 49.4771 35.3038 49.5044 35.3186 49.5044V49.554C35.3235 49.8495 35.3161 50.264 35.3038 50.6886C35.2939 51.1106 35.2841 51.5426 35.3038 51.9447C35.3161 52.1433 35.3284 52.3345 35.3728 52.5505C35.4147 52.7664 35.4098 53.0296 35.8118 53.4268H35.8167C36.2162 53.8265 36.4726 53.819 36.6871 53.8588C36.9017 53.901 37.0891 53.9183 37.2888 53.9283C37.6883 53.9531 38.1272 53.9283 38.5464 53.9035C38.8892 53.8786 39.1875 53.8712 39.4588 53.8687V59.5761H11.0666C11.8194 58.58 12.2514 57.3758 12.3045 56.1253C12.3244 56.0357 12.3343 55.9441 12.3341 55.8522V50.9889C12.3386 50.9278 12.3386 50.8664 12.3341 50.8052V6.20636C12.3341 4.12102 13.9616 2.48254 16.0329 2.48254H16.0354ZM20.9326 2.48254H67.8189C69.8902 2.48254 71.5177 4.12102 71.5177 6.20636V9.93017H63.0795C63.0096 9.91574 62.9387 9.90743 62.8674 9.90534C62.8044 9.90878 62.7417 9.91708 62.68 9.93017H22.2001V6.20636C22.2001 4.8062 21.7168 3.52521 20.9326 2.48254ZM17.1426 17.3778C16.8156 17.3946 16.5086 17.5415 16.2892 17.7861C16.0697 18.0308 15.9558 18.3532 15.9725 18.6824C15.9892 19.0116 16.1351 19.3206 16.3781 19.5415C16.6211 19.7625 16.9413 19.8771 17.2683 19.8603H56.7224C57.0494 19.8603 57.363 19.7296 57.5942 19.4968C57.8255 19.264 57.9554 18.9483 57.9554 18.6191C57.9554 18.2899 57.8255 17.9741 57.5942 17.7414C57.363 17.5086 57.0494 17.3778 56.7224 17.3778H17.2683C17.2273 17.3757 17.1861 17.3757 17.145 17.3778H17.1426ZM17.1426 24.8254C16.8156 24.8422 16.5086 24.9891 16.2892 25.2338C16.0697 25.4784 15.9558 25.8008 15.9725 26.13C15.9892 26.4592 16.1351 26.7683 16.3781 26.9892C16.6211 27.2101 16.9413 27.3248 17.2683 27.308H56.7224C57.0494 27.308 57.363 27.1772 57.5942 26.9444C57.8255 26.7116 57.9554 26.3959 57.9554 26.0667C57.9554 25.7375 57.8255 25.4218 57.5942 25.189C57.363 24.9562 57.0494 24.8254 56.7224 24.8254H17.2683C17.2273 24.8234 17.1861 24.8234 17.145 24.8254H17.1426ZM17.1426 32.2731C16.8156 32.2898 16.5086 32.4367 16.2892 32.6814C16.0697 32.926 15.9558 33.2484 15.9725 33.5776C15.9892 33.9068 16.1351 34.2159 16.3781 34.4368C16.6211 34.6577 16.9413 34.7724 17.2683 34.7556H32.0636C32.3906 34.7556 32.7042 34.6248 32.9354 34.392C33.1667 34.1593 33.2966 33.8435 33.2966 33.5143C33.2966 33.1851 33.1667 32.8694 32.9354 32.6366C32.7042 32.4038 32.3906 32.2731 32.0636 32.2731H17.2683C17.2273 32.271 17.1861 32.271 17.145 32.2731H17.1426ZM48.4593 32.5536V32.5635C48.5677 32.7547 48.6689 32.9284 48.7946 33.1593C48.9919 33.5218 49.1892 33.8991 49.3864 34.2318C49.4851 34.3981 49.5837 34.557 49.6947 34.7109C49.8081 34.8648 49.8771 35.0237 50.2618 35.2447H50.2692C50.6564 35.4681 50.8265 35.4383 51.0164 35.4582C51.2062 35.483 51.3863 35.483 51.5786 35.4879C51.9633 35.4879 52.3899 35.4631 52.7967 35.4482H53.4773C53.4773 35.6717 53.4823 35.8777 53.4773 36.1433C53.4675 36.553 53.4576 36.9775 53.4625 37.3647C53.4625 37.5584 53.4625 37.7396 53.4872 37.9308C53.5069 38.1219 53.4872 38.2957 53.7116 38.683C53.9384 39.0703 54.1012 39.1423 54.2565 39.254C54.4085 39.3627 54.5657 39.4637 54.7275 39.5568C55.0604 39.7505 55.4426 39.9441 55.8026 40.1377C56.0344 40.2619 56.2095 40.3661 56.3994 40.4779C56.2909 40.669 56.1898 40.8478 56.0542 41.0737C55.8396 41.4237 55.6202 41.7886 55.4328 42.1263C55.3388 42.2898 55.2533 42.458 55.1763 42.6302C55.1023 42.804 54.9963 42.9455 54.9988 43.3948C54.9988 43.8467 55.1023 43.9857 55.1812 44.1644C55.2602 44.3382 55.3514 44.4946 55.4451 44.6609C55.6374 44.9961 55.8643 45.361 56.0813 45.7086C56.2218 45.9345 56.323 46.1083 56.4339 46.2994C56.244 46.4111 56.0714 46.5179 55.8421 46.647C55.4821 46.8406 55.1023 47.0442 54.7719 47.2428C54.6067 47.3421 54.4587 47.4339 54.3034 47.5457C54.1505 47.6599 53.9853 47.7269 53.7658 48.1166C53.5439 48.5089 53.5686 48.6876 53.5488 48.8788C53.5291 49.0699 53.5291 49.2536 53.5291 49.4473C53.5291 49.8346 53.5439 50.2566 53.5587 50.6687C53.5686 50.9343 53.5661 51.1404 53.5686 51.3638H52.883C52.4762 51.3638 52.0496 51.3315 51.6649 51.334C51.4726 51.334 51.295 51.334 51.1076 51.3663C50.9177 51.3911 50.7451 51.3688 50.3604 51.5897H50.3555C50.1781 51.6831 50.0245 51.8165 49.9067 51.9795C49.7458 52.08 49.61 52.2165 49.51 52.3784C49.4099 52.5403 49.3482 52.7232 49.3297 52.9129L48.9105 53.69C48.7872 53.9233 48.6886 54.0996 48.5776 54.2907C48.3877 54.1815 48.2077 54.0847 47.9809 53.9457C47.6332 53.7322 47.2756 53.5062 46.9403 53.3176C46.7726 53.2232 46.6148 53.1339 46.4397 53.0544C46.2646 52.9799 46.1265 52.8732 45.6802 52.8757C45.2339 52.8757 45.0933 52.9874 44.9158 53.0644C44.7432 53.1438 44.5829 53.2307 44.4177 53.325C44.0848 53.5187 43.7272 53.752 43.382 53.9705C43.1601 54.112 42.9801 54.2088 42.7902 54.318C42.6792 54.1294 42.5781 53.9556 42.4524 53.7222C42.2551 53.3623 42.0578 52.9899 41.8606 52.6547C41.7658 52.4907 41.663 52.3316 41.5523 52.1781C41.4389 52.0242 41.3723 51.8603 40.9852 51.6394C40.5956 51.4159 40.4279 51.4408 40.238 51.4209C40.0457 51.3961 39.8607 51.3961 39.6684 51.3961C39.2837 51.3961 38.8571 51.4209 38.4502 51.4259H37.7697C37.7697 51.2024 37.7647 51.0038 37.7697 50.7407C37.782 50.3311 37.7894 49.9066 37.7845 49.5193C37.7845 49.3256 37.7845 49.1395 37.7598 48.9483C37.7401 48.7571 37.7598 48.5784 37.5354 48.1911C37.3085 47.8038 37.1458 47.7418 36.9929 47.6301C36.8396 47.5213 36.6817 47.4194 36.5195 47.3247C36.1866 47.1311 35.8044 46.9349 35.4443 46.7413C35.2125 46.6172 35.0375 46.5104 34.8476 46.4012C34.9561 46.21 35.0572 46.0313 35.1928 45.8054C35.4073 45.4554 35.6268 45.0904 35.8167 44.7528C35.9098 44.5893 35.9946 44.4211 36.0707 44.2488C36.1471 44.0751 36.2507 43.9336 36.2482 43.4842C36.2482 43.0349 36.1446 42.8983 36.0657 42.7221C35.9864 42.5497 35.8983 42.3815 35.8019 42.2181C35.6096 41.883 35.3827 41.523 35.1657 41.1755C35.0251 40.952 34.924 40.7733 34.8131 40.5846C35.0029 40.4729 35.1756 40.3661 35.4049 40.2395C35.7649 40.0434 36.1446 39.8423 36.4751 39.6437C36.6403 39.5444 36.7882 39.4501 36.9436 39.3334C37.0965 39.2192 37.2617 39.1472 37.4812 38.755C37.7031 38.3652 37.6784 38.1964 37.6982 38.0052C37.7179 37.8141 37.7179 37.6304 37.7179 37.4367C37.7179 37.0495 37.7031 36.625 37.6883 36.2153C37.6784 35.9497 37.6809 35.7436 37.6784 35.5202H38.3639C38.7708 35.5202 39.1974 35.5475 39.5821 35.545C39.7744 35.545 39.952 35.545 40.1394 35.5177C40.3293 35.4929 40.5068 35.5177 40.8915 35.2893C41.2761 35.0634 41.3378 34.907 41.4512 34.7506C41.5622 34.5942 41.6584 34.4329 41.7545 34.2665C41.9469 33.9314 42.1441 33.5516 42.3365 33.1891C42.4598 32.9558 42.5584 32.7795 42.6694 32.5883C42.8592 32.6976 43.0392 32.7919 43.2661 32.9334C43.6138 33.1469 43.9713 33.3728 44.3067 33.564C44.4744 33.6583 44.6322 33.7378 44.8073 33.8147C44.9824 33.8917 45.1229 34.0009 45.5692 33.9984C46.0131 33.9984 46.1537 33.8867 46.3287 33.8097C46.5013 33.7303 46.6641 33.6434 46.8293 33.5491C47.1647 33.3554 47.5198 33.1221 47.865 32.9036C48.0869 32.7621 48.2694 32.6653 48.4568 32.5561L48.4593 32.5536ZM45.5914 37.6676C44.9256 37.6676 44.684 38.0102 44.5237 38.189C44.3885 38.3419 44.2702 38.5092 44.1711 38.6879C43.9812 39.0214 43.8083 39.3645 43.6533 39.7157C43.4905 40.0658 43.3376 40.4108 43.2168 40.6516C43.2119 40.6765 43.2094 40.6765 43.2045 40.6864H43.1699C42.9061 40.7286 42.5387 40.7733 42.1639 40.8254C41.7882 40.8713 41.4153 40.9376 41.0468 41.024C40.8485 41.0684 40.6558 41.135 40.4723 41.2226C40.2577 41.3269 39.8755 41.4609 39.6733 42.1114C39.4711 42.7593 39.7054 43.0969 39.8213 43.308C39.9396 43.519 40.0506 43.663 40.1739 43.807C40.4205 44.0974 40.7016 44.363 40.9778 44.6262C41.2564 44.8918 41.5301 45.1475 41.72 45.3362C41.7323 45.3362 41.7299 45.361 41.7397 45.361V45.3983C41.6978 45.6664 41.6238 46.0363 41.5573 46.4161C41.4882 46.7959 41.4241 47.1857 41.397 47.5655C41.3784 47.7705 41.3817 47.9769 41.4068 48.1812C41.4364 48.422 41.4414 48.8366 41.9838 49.2338H41.9888C42.5313 49.631 42.916 49.5069 43.1502 49.4572C43.3845 49.4076 43.5522 49.3381 43.7248 49.2636C44.07 49.1146 44.4078 48.9309 44.7407 48.7422C45.0711 48.5585 45.3892 48.3649 45.626 48.2408C45.6408 48.2408 45.6457 48.2408 45.6605 48.2159C45.6728 48.2159 45.6753 48.2159 45.6876 48.2408C45.9268 48.3649 46.2498 48.5461 46.5852 48.7298C46.9181 48.9111 47.2584 49.0948 47.6061 49.2388C47.7787 49.3107 47.9513 49.3778 48.1831 49.4225C48.4173 49.4671 48.7995 49.5863 49.3396 49.1817C49.8771 48.777 49.8821 48.3624 49.9067 48.1241C49.9286 47.9195 49.9286 47.7131 49.9067 47.5084C49.8685 47.1242 49.8109 46.7423 49.7341 46.364C49.6626 45.9841 49.5911 45.6118 49.5467 45.3461L49.5418 45.3114C49.5516 45.3114 49.5492 45.2865 49.5615 45.2865C49.7489 45.0954 50.0202 44.8372 50.2939 44.5691C50.5651 44.301 50.8413 44.0304 51.083 43.7399C51.2038 43.5934 51.3197 43.4495 51.4356 43.236C51.549 43.0225 51.7808 42.6848 51.5687 42.0394C51.3591 41.3939 50.9769 41.2623 50.7599 41.1606C50.5749 41.0757 50.3815 41.0107 50.1829 40.9669C49.8141 40.8855 49.4412 40.8241 49.0659 40.7832C48.6886 40.7336 48.3162 40.6963 48.0548 40.6566H48.0203C48.0129 40.6318 48.0129 40.6318 48.0055 40.6268C47.8822 40.386 47.7269 40.0434 47.5617 39.6959C47.4023 39.3461 47.2254 39.0047 47.0315 38.673C46.9295 38.495 46.8088 38.3286 46.6715 38.1765C46.5087 38.0028 46.2597 37.6701 45.5914 37.6751V37.6701V37.6676ZM17.1426 39.7207C16.8156 39.7375 16.5086 39.8844 16.2892 40.129C16.0697 40.3737 15.9558 40.6961 15.9725 41.0253C15.9892 41.3545 16.1351 41.6635 16.3781 41.8844C16.6211 42.1053 16.9413 42.22 17.2683 42.2032H29.5977C29.9247 42.2032 30.2383 42.0725 30.4696 41.8397C30.7008 41.6069 30.8307 41.2912 30.8307 40.962C30.8307 40.6327 30.7008 40.317 30.4696 40.0842C30.2383 39.8515 29.9247 39.7207 29.5977 39.7207H17.2683C17.2273 39.7186 17.1861 39.7186 17.145 39.7207H17.1426ZM45.6161 41.3244C45.6851 41.4734 45.7542 41.6223 45.8232 41.7613C45.9021 41.9153 45.9786 42.0592 46.0698 42.2082C46.1611 42.3571 46.2005 42.4987 46.5457 42.7519C46.891 43.0026 47.034 42.9976 47.2017 43.0374C47.3669 43.0771 47.5271 43.1044 47.6948 43.1292C47.8477 43.154 48.0105 43.1714 48.1683 43.1913C48.0524 43.3055 47.934 43.4172 47.828 43.5264C47.7047 43.6506 47.5937 43.7697 47.4852 43.9063C47.3767 44.0403 47.2534 44.1198 47.1227 44.5319C46.9945 44.944 47.0488 45.0855 47.0611 45.2568C47.0759 45.4305 47.1006 45.5944 47.1277 45.7682C47.1523 45.9221 47.1893 46.081 47.2214 46.2423C47.0784 46.1654 46.9329 46.0834 46.7972 46.0139C46.6478 45.9355 46.4948 45.8642 46.3386 45.8004C46.1808 45.7359 46.0674 45.6415 45.6457 45.6465C45.2216 45.6465 45.1032 45.7458 44.9478 45.8104C44.7937 45.8768 44.6423 45.9497 44.4941 46.0288C44.3535 46.1049 44.2137 46.1827 44.0749 46.2622C44.1045 46.1008 44.1341 45.9395 44.1563 45.7855C44.1834 45.6142 44.2081 45.4504 44.2204 45.2766C44.2303 45.1028 44.2821 44.9663 44.1464 44.5567C44.0133 44.1446 43.8924 44.0602 43.7815 43.9286C43.6717 43.7996 43.5566 43.6753 43.4363 43.5562L43.0886 43.2211C43.2464 43.1962 43.4091 43.1838 43.5595 43.159C43.7297 43.1317 43.885 43.0994 44.0527 43.0572C44.2179 43.015 44.3634 43.0225 44.7062 42.7668C45.0489 42.5086 45.0835 42.3671 45.1747 42.2181C45.2635 42.0692 45.3374 41.9202 45.4139 41.7613C45.4829 41.6223 45.5495 41.4734 45.6161 41.3244ZM2.47304 52.1334H9.87068V55.8572C9.87068 57.9252 8.26786 59.5512 6.22118 59.5761H6.17186C6.15543 59.5757 6.13898 59.5757 6.12254 59.5761C5.64 59.5744 5.16252 59.4768 4.71757 59.2888C4.27262 59.1008 3.86897 58.8261 3.52983 58.4805C3.19068 58.1349 2.92272 57.7252 2.74136 57.275C2.56 56.8248 2.46882 56.343 2.47304 55.8572V52.1334ZM17.145 52.1334C16.818 52.1499 16.5109 52.2964 16.2913 52.5408C16.0716 52.7853 15.9574 53.1075 15.9737 53.4367C15.9901 53.7659 16.1357 54.0751 16.3785 54.2963C16.6212 54.5174 16.9413 54.6324 17.2683 54.6159H32.0636C32.3906 54.6159 32.7042 54.4852 32.9354 54.2524C33.1667 54.0196 33.2966 53.7039 33.2966 53.3747C33.2966 53.0455 33.1667 52.7297 32.9354 52.497C32.7042 52.2642 32.3906 52.1334 32.0636 52.1334H17.2683C17.2273 52.1313 17.1861 52.1313 17.145 52.1334ZM46.8589 56.1477C47.1647 56.3363 47.4803 56.525 47.7836 56.6814C47.9611 56.7733 48.1288 56.8552 48.3384 56.9247C48.5456 56.9942 48.7724 57.1332 49.3149 56.9818H49.3248V66.5148L46.4496 64.7025C46.2591 64.5796 46.0387 64.5118 45.8126 64.5066C45.5864 64.5013 45.3632 64.5588 45.1673 64.6727L41.9222 66.5868V56.9495C41.9863 56.9744 42.0085 57.0091 42.0899 57.029C42.6348 57.173 42.8568 57.029 43.0639 56.9644C43.271 56.8924 43.4412 56.8055 43.6187 56.7137C43.8727 56.5796 44.1341 56.4108 44.393 56.247V60.8297C44.393 61.159 44.5229 61.4747 44.7541 61.7075C44.9854 61.9402 45.299 62.071 45.626 62.071C45.953 62.071 46.2666 61.9402 46.4978 61.7075C46.729 61.4747 46.8589 61.159 46.8589 60.8297V56.1502V56.1477Z" fill="#F5731C"/>
</svg>
