<svg width="55" height="63" viewBox="0 0 55 63" fill="none" xmlns="http://www.w3.org/2000/svg">
<g clip-path="url(#clip0_162_1290)">
<path d="M46.7465 60.3757H8.25016C7.33483 60.3757 2.74892 60.1168 2.74892 55.1243C2.74892 49.9934 14.2537 32.3914 21.5024 22.5034L21.9986 21.8238V2.62721H32.998V21.8238L33.4942 22.5034C40.7429 32.3914 52.2446 49.9934 52.2446 55.1243C52.2477 59.9227 48.0255 60.3551 46.7465 60.3757ZM35.7502 21V2.62721H38.4992V0H16.5005V2.62721H19.2526V21C19.2526 21 0.00292969 47.2515 0.00292969 55.1272C0.00292969 63.0029 8.25324 63.0029 8.25324 63.0029H46.7526C46.7526 63.0029 55.0029 63.0029 55.0029 55.1272C55.0029 47.2515 35.7502 21 35.7502 21Z" fill="#F5731C"/>
<path d="M16.501 53.0942C18.0193 53.0942 19.2501 51.9193 19.2501 50.47C19.2501 49.0206 18.0193 47.8457 16.501 47.8457C14.9828 47.8457 13.752 49.0206 13.752 50.47C13.752 51.9193 14.9828 53.0942 16.501 53.0942Z" fill="#F5731C"/>
<path d="M31.975 57.6868C34.0209 57.6868 35.6794 56.1036 35.6794 54.1505C35.6794 52.1975 34.0209 50.6143 31.975 50.6143C29.9291 50.6143 28.2705 52.1975 28.2705 54.1505C28.2705 56.1036 29.9291 57.6868 31.975 57.6868Z" fill="#F5731C"/>
<path d="M25.6324 52.7531C27.5489 52.7531 29.1026 51.2699 29.1026 49.4404C29.1026 47.6108 27.5489 46.1277 25.6324 46.1277C23.7158 46.1277 22.1621 47.6108 22.1621 49.4404C22.1621 51.2699 23.7158 52.7531 25.6324 52.7531Z" fill="#F5731C"/>
<path d="M24.9944 45.2214C27.825 45.2214 30.1196 43.0309 30.1196 40.3288C30.1196 37.6267 27.825 35.4363 24.9944 35.4363C22.1638 35.4363 19.8691 37.6267 19.8691 40.3288C19.8691 43.0309 22.1638 45.2214 24.9944 45.2214Z" fill="#F5731C"/>
<path d="M35.4727 43.2944C36.991 43.2944 38.2218 42.1195 38.2218 40.6702C38.2218 39.2208 36.991 38.0459 35.4727 38.0459C33.9544 38.0459 32.7236 39.2208 32.7236 40.6702C32.7236 42.1195 33.9544 43.2944 35.4727 43.2944Z" fill="#F5731C"/>
<path d="M33.9137 48.6402C34.9146 48.6402 35.7259 47.8657 35.7259 46.9103C35.7259 45.9549 34.9146 45.1804 33.9137 45.1804C32.9129 45.1804 32.1016 45.9549 32.1016 46.9103C32.1016 47.8657 32.9129 48.6402 33.9137 48.6402Z" fill="#F5731C"/>
</g>
<defs>
<clipPath id="clip0_162_1290">
<rect width="55" height="63" fill="white"/>
</clipPath>
</defs>
</svg>
