<svg width="183" height="41" viewBox="0 0 183 41" fill="none" xmlns="http://www.w3.org/2000/svg">
<circle cx="43.801" cy="24.2638" r="5.67205" fill="#F5731C"/>
<path fill-rule="evenodd" clip-rule="evenodd" d="M43.8006 12.0531C37.0569 12.0531 31.59 17.52 31.59 24.2638C31.59 31.0075 37.0569 36.4744 43.8006 36.4744C45.0657 36.4744 46.2821 36.2827 47.4244 35.9283C48.5463 35.5802 49.738 36.2076 50.0861 37.3295C50.4342 38.4515 49.8069 39.6432 48.6849 39.9913C47.1391 40.4709 45.498 40.7285 43.8006 40.7285C34.7074 40.7285 27.3359 33.357 27.3359 24.2638C27.3359 15.1706 34.7074 7.79907 43.8006 7.79907C45.498 7.79907 47.1391 8.05661 48.6849 8.53623C49.8069 8.88433 50.4342 10.076 50.0861 11.198C49.738 12.32 48.5463 12.9473 47.4244 12.5992C46.2821 12.2448 45.0657 12.0531 43.8006 12.0531Z" fill="#183C8D"/>
<path fill-rule="evenodd" clip-rule="evenodd" d="M24.2635 12.0531C17.5198 12.0531 12.0529 17.52 12.0529 24.2638C12.0529 31.0075 17.5198 36.4744 24.2635 36.4744C25.5286 36.4744 26.745 36.2827 27.8873 35.9283C29.0092 35.5802 30.2009 36.2076 30.549 37.3295C30.8971 38.4515 30.2698 39.6432 29.1478 39.9913C27.602 40.4709 25.9608 40.7285 24.2635 40.7285C15.1703 40.7285 7.79883 33.357 7.79883 24.2638C7.79883 15.1706 15.1703 7.79907 24.2635 7.79907C25.9608 7.79907 27.602 8.05661 29.1478 8.53623C30.2698 8.88433 30.8971 10.076 30.549 11.198C30.2009 12.32 29.0092 12.9473 27.8873 12.5992C26.745 12.2448 25.5286 12.0531 24.2635 12.0531Z" fill="#183C8D"/>
<path d="M26.0804 18.8889C25.5101 18.6963 24.8991 18.5918 24.2638 18.5918C21.1313 18.5918 18.5918 21.1312 18.5918 24.2638C18.5918 27.3964 21.1313 29.9359 24.2638 29.9359C24.8991 29.9359 25.5101 29.8314 26.0804 29.6388C25.5651 27.9377 25.288 26.1331 25.288 24.2638C25.288 22.3945 25.5651 20.59 26.0804 18.8889Z" fill="#F5731C"/>
<path d="M5.04423 26.046C4.9905 25.4591 4.96304 24.8646 4.96304 24.2638C4.96304 23.6071 4.99584 22.958 5.05988 22.3182L0 24.185L5.04423 26.046Z" fill="#183C8D"/>
<path d="M6.67487 16.3056C7.19381 15.1605 7.8213 14.075 8.54421 13.0623L3.1868 12.1991L6.67487 16.3056Z" fill="#183C8D"/>
<path d="M24.185 0L26.0461 5.04457C25.4585 4.99058 24.8639 4.96304 24.2637 4.96304C23.607 4.96304 22.958 4.99584 22.3182 5.05988L24.185 0Z" fill="#183C8D"/>
<path d="M16.4496 6.61035L12.2361 3.10059L13.1557 8.478C14.1841 7.75296 15.2866 7.12589 16.4496 6.61035Z" fill="#183C8D"/>
<path d="M84.2512 36.5217V13.0833H88.0312V36.5217H84.2512Z" fill="#183C8D"/>
<path d="M72.625 14.7526H76.405V18.2056C76.405 22.6121 78.1211 27.9205 81.8992 30.6263L79.2545 33.0803C76.405 30.6263 75.0987 27.9205 74.5723 24.9313C73.7895 27.9205 72.1985 30.6263 68.9594 33.0803L66.4092 30.6263C69.715 28.5647 72.625 22.8183 72.625 18.2056V14.7526Z" fill="#183C8D"/>
<path d="M96.0415 24.1583H104.85V21.5041H96.0415V17.6387H104.85V14.8814H92.2615V31.2962H94.5524C99.2773 31.2962 102.216 31.1932 106.339 30.6263L105.996 27.9205C102.388 28.4101 99.9646 28.539 96.0415 28.5647V24.1583Z" fill="#183C8D"/>
<path d="M108.258 36.4959V13.109H112.067V36.4959H108.258Z" fill="#183C8D"/>
<path d="M115.73 16.608V13.9022H127.843C127.843 20.4733 124.321 24.6736 115.816 26.864L114.384 24.2098C117.935 23.3336 120.283 22.174 121.801 20.7052L114.928 21.1691L114.413 18.5406L123.405 18.2572C123.605 17.7418 123.748 17.1749 123.806 16.608H115.73Z" fill="#183C8D"/>
<path fill-rule="evenodd" clip-rule="evenodd" d="M131.222 28.7339H121.543V26.6723H117.792V36.4959H121.543V35.9749H131.194V36.4959H134.974V26.6723H131.222V28.7339ZM131.222 33.2692H121.543V31.3365H131.222V33.2692Z" fill="#183C8D"/>
<path d="M134.974 19.5907H138.089V22.3738H134.974V26.0394H131.194V13.0833H134.974V19.5907Z" fill="#183C8D"/>
<path d="M149.571 21.8648H152.291V13.6244H155.814V35.4136H152.291V24.5706H148.54C147.137 27.4051 144.674 29.9047 140.665 31.992L138.575 29.6213C141.896 27.869 143.987 25.9105 145.218 23.6429L139.147 24.2098L138.718 21.3752L146.22 21.0144C146.45 20.1641 146.593 19.2622 146.679 18.3087H140.035V15.5772H150.315C150.315 17.8191 150.115 19.9322 149.571 21.8648Z" fill="#183C8D"/>
<path d="M157.223 13.0833V36.4444H160.802V13.0833H157.223Z" fill="#183C8D"/>
<path d="M179.22 13.0833V21.4525H175.973V24.2098H179.22V36.5217H183V13.0833H179.22Z" fill="#183C8D"/>
<path fill-rule="evenodd" clip-rule="evenodd" d="M169.267 14.1994C167.184 14.1994 165.668 15.3198 164.771 16.9299C163.839 18.6011 163.316 20.7957 163.316 23.1283C163.316 25.4609 163.839 27.6555 164.771 29.3267C165.668 30.9368 167.184 32.0572 169.267 32.0572C171.349 32.0572 172.865 30.9368 173.762 29.3267C174.694 27.6555 175.217 25.4609 175.217 23.1283C175.217 20.7957 174.694 18.6011 173.762 16.9299C172.865 15.3198 171.349 14.1994 169.267 14.1994ZM166.716 23.1283C166.716 21.2487 167.145 19.63 167.752 18.5408C168.393 17.3905 168.794 17.1757 169.267 17.1757C169.739 17.1757 170.141 17.3905 170.782 18.5408C171.389 19.63 171.817 21.2487 171.817 23.1283C171.817 25.0079 171.389 26.6266 170.782 27.7158C170.141 28.8661 169.644 29.0809 169.267 29.0809C168.889 29.0809 168.393 28.8661 167.752 27.7158C167.145 26.6266 166.716 25.0079 166.716 23.1283Z" fill="#183C8D"/>
</svg>
