<svg width="221" height="51" viewBox="0 0 221 51" fill="none" xmlns="http://www.w3.org/2000/svg">
<circle cx="54.3327" cy="30.0976" r="7.03582" fill="#F5731C"/>
<path fill-rule="evenodd" clip-rule="evenodd" d="M54.3316 14.9512C45.9664 14.9512 39.1851 21.7325 39.1851 30.0977C39.1851 38.4629 45.9664 45.2443 54.3316 45.2443C55.9009 45.2443 57.4097 45.0065 58.8266 44.5669C60.2184 44.1351 61.6966 44.9133 62.1284 46.305C62.5602 47.6967 61.782 49.1749 60.3903 49.6067C58.4728 50.2017 56.437 50.5211 54.3316 50.5211C43.0521 50.5211 33.9082 41.3773 33.9082 30.0977C33.9082 18.8182 43.0521 9.67432 54.3316 9.67432C56.437 9.67432 58.4728 9.99377 60.3903 10.5887C61.782 11.0205 62.5602 12.4988 62.1284 13.8905C61.6966 15.2822 60.2184 16.0604 58.8266 15.6286C57.4097 15.189 55.9009 14.9512 54.3316 14.9512Z" fill="white"/>
<path fill-rule="evenodd" clip-rule="evenodd" d="M30.0972 14.9512C21.732 14.9512 14.9507 21.7325 14.9507 30.0977C14.9507 38.4629 21.732 45.2443 30.0972 45.2443C31.6665 45.2443 33.1753 45.0065 34.5923 44.5669C35.984 44.1351 37.4622 44.9133 37.894 46.305C38.3258 47.6967 37.5477 49.1749 36.1559 49.6067C34.2384 50.2017 32.2027 50.5211 30.0972 50.5211C18.8177 50.5211 9.67383 41.3773 9.67383 30.0977C9.67383 18.8182 18.8177 9.67432 30.0972 9.67432C32.2027 9.67432 34.2384 9.99377 36.1559 10.5887C37.5477 11.0205 38.3258 12.4988 37.894 13.8905C37.4622 15.2822 35.984 16.0604 34.5923 15.6286C33.1753 15.189 31.6665 14.9512 30.0972 14.9512Z" fill="white"/>
<path d="M32.3506 23.4303C31.6433 23.1914 30.8854 23.0618 30.0973 23.0618C26.2116 23.0618 23.0615 26.2118 23.0615 30.0976C23.0615 33.9834 26.2116 37.1334 30.0973 37.1334C30.8854 37.1334 31.6433 37.0038 32.3506 36.7649C31.7114 34.6548 31.3677 32.4163 31.3677 30.0976C31.3677 27.7788 31.7114 25.5404 32.3506 23.4303Z" fill="#F5731C"/>
<path d="M6.25705 32.3084C6.1904 31.5804 6.15634 30.843 6.15634 30.0977C6.15634 29.2831 6.19702 28.478 6.27647 27.6843L0 29.9999L6.25705 32.3084Z" fill="white"/>
<path d="M8.27975 20.2261C8.92347 18.8056 9.70183 17.4592 10.5986 16.203L3.95302 15.1322L8.27975 20.2261Z" fill="white"/>
<path d="M29.9999 0L32.3086 6.25747C31.5796 6.1905 30.8421 6.15634 30.0977 6.15634C29.2831 6.15634 28.478 6.19702 27.6843 6.27647L29.9999 0Z" fill="white"/>
<path d="M20.4047 8.19973L15.1781 3.84608L16.3188 10.5164C17.5945 9.61706 18.9621 8.83921 20.4047 8.19973Z" fill="white"/>
<path d="M98.38 45.3029V16.229H103.069V45.3029H98.38Z" fill="white"/>
<path d="M83.9584 18.2997H88.6472V22.583C88.6472 28.049 90.776 34.6337 95.4624 37.99L92.1819 41.0341C88.6472 37.99 87.0268 34.6337 86.3738 30.9258C85.4029 34.6337 83.4294 37.99 79.4114 41.0341L76.248 37.99C80.3487 35.4328 83.9584 28.3047 83.9584 22.583V18.2997Z" fill="white"/>
<path d="M113.005 29.9668H123.932V26.6745H113.005V21.8798H123.932V18.4595H108.316V38.8211H111.158C117.019 38.8211 120.664 38.6932 125.779 37.99L125.353 34.6337C120.877 35.241 117.871 35.4009 113.005 35.4328V29.9668Z" fill="white"/>
<path d="M128.159 45.271V16.261H132.883V45.271H128.159Z" fill="white"/>
<path d="M137.428 20.6012V17.2449H152.453C152.453 25.3959 148.084 30.6061 137.534 33.3231L135.758 30.0308C140.163 28.944 143.076 27.5056 144.958 25.6836L136.433 26.2589L135.794 22.9985L146.947 22.6469C147.196 22.0076 147.374 21.3044 147.445 20.6012H137.428Z" fill="white"/>
<path fill-rule="evenodd" clip-rule="evenodd" d="M156.645 35.6426H144.639V33.0854H139.985V45.271H144.639V44.6247H156.609V45.271H161.298V33.0854H156.645V35.6426ZM156.645 41.2684H144.639V38.871H156.645V41.2684Z" fill="white"/>
<path d="M161.298 24.3011H165.163V27.7533H161.298V32.3003H156.609V16.229H161.298V24.3011Z" fill="white"/>
<path d="M179.405 27.122H182.779V16.9003H187.149V43.9284H182.779V30.4783H178.126C176.386 33.9944 173.331 37.095 168.358 39.6841L165.765 36.7434C169.885 34.5698 172.478 32.1405 174.006 29.3276L166.475 30.0308L165.942 26.5147L175.249 26.0672C175.533 25.0123 175.711 23.8935 175.817 22.7109H167.576V19.3226H180.328C180.328 22.1035 180.08 24.7246 179.405 27.122Z" fill="white"/>
<path d="M188.897 16.229V45.207H193.337V16.229H188.897Z" fill="white"/>
<path d="M216.183 16.229V26.6106H212.155V30.0308H216.183V45.3029H220.872V16.229H216.183Z" fill="white"/>
<path fill-rule="evenodd" clip-rule="evenodd" d="M203.836 17.6135C201.253 17.6135 199.372 19.0033 198.259 21.0005C197.104 23.0735 196.455 25.7958 196.455 28.6893C196.455 31.5827 197.104 34.305 198.259 36.378C199.372 38.3752 201.253 39.765 203.836 39.765C206.419 39.765 208.3 38.3752 209.413 36.378C210.568 34.305 211.217 31.5827 211.217 28.6893C211.217 25.7958 210.568 23.0735 209.413 21.0005C208.3 19.0033 206.419 17.6135 203.836 17.6135ZM200.673 28.6893C200.673 26.3578 201.204 24.3498 201.957 22.9987C202.752 21.5719 203.25 21.3054 203.836 21.3054C204.422 21.3054 204.92 21.5719 205.715 22.9987C206.468 24.3498 207 26.3578 207 28.6893C207 31.0208 206.468 33.0287 205.715 34.3798C204.92 35.8066 204.305 36.0731 203.836 36.0731C203.368 36.0731 202.752 35.8066 201.957 34.3798C201.204 33.0287 200.673 31.0208 200.673 28.6893Z" fill="white"/>
</svg>
